<svg xmlns="http://www.w3.org/2000/svg" xml:space="preserve" baseProfile="basic" height="24" viewBox="0 0 24 24" width="24"><g fill="#fff"><path d="M768 481.938h-36c-2.2 0-4 1.8-4 4V492h3.984v-6.016H768v27.975h-14.041v3.979H768c2.2 0 4-1.8 4-4v-28c0-2.201-1.8-4-4-4z"/><path d="M728.104 495.938c-.035 0-.069.002-.104.002v4.502c.035 0 .069-.005.104-.005 9.67 0 17.499 7.83 17.499 17.5h4.5c.001-12.157-9.841-21.999-21.999-21.999z"/><path d="M728.104 503.938c-.035 0-.069.005-.104.005v4.5c.035 0 .069-.005.104-.005 5.248 0 9.5 4.252 9.5 9.5h4.5c0-7.736-6.264-14-14-14zm-.104 14h6c0-3.256-2.64-5.896-5.896-5.896-.035 0-.069.005-.104.005v5.891zm8-27.626v2.885c7.934 2.563 14.196 8.832 16.75 16.77.043.096.09.188.132.283H764v-19.938h-28z"/></g></svg>
