<svg xmlns="http://www.w3.org/2000/svg" xml:space="preserve" width="127.135" height="26.934" style="enable-background:new 0 0 127.135 26.934"><path d="M5.393 19.211c2.338-1.368.002.006 2.338-1.368 1.277 1.981 1.916 4.573 4.488 4.963 2.645.401 5.234-1.227 6.379-2.319 2.406-2.297 3.859-8.114 1.449-11.164-2.178-2.754-7.564-4.185-11.02-2.609-3.525 1.607-5.453 6.543-3.947 11.632.064.221.359 1.018.314.871l-3.615 1.994c-.926-3.209-1.998-5.734-1.74-9.134C.572 5.06 5.709-.548 13.957.043c4.277.307 8.258 2.15 10.584 4.785 7.342 8.313-.279 23.241-11.453 22.037-3.553-.383-6.062-3.358-7.359-6.768-.157-.41-.327-.859-.336-.886z" style="fill-rule:evenodd;clip-rule:evenodd;fill:#fcee21"/><path d="M39.456 20.495c-.721 0-1.392-.21-2.013-.632s-1.12-.975-1.496-1.657a4.432 4.432 0 0 1-.563-2.174v-2.347c0-.812.188-1.549.563-2.208a4.62 4.62 0 0 1 1.496-1.6 3.683 3.683 0 0 1 2.059-.609c.736 0 1.361.181 1.875.541.514.36.893.763 1.139 1.207V3.494c0-.199.096-.36.288-.483.191-.122.426-.184.702-.184s.498.062.667.184a.57.57 0 0 1 .253.483v16.127c0 .169-.084.326-.253.472-.169.146-.391.219-.667.219a.954.954 0 0 1-.633-.219c-.176-.146-.265-.303-.265-.472v-.92c-.23.476-.636.894-1.219 1.254s-1.227.54-1.933.54zm.461-1.724c.491 0 .932-.135 1.323-.403.391-.268.702-.571.932-.908.23-.338.345-.605.345-.806v-2.968c0-.567-.126-1.047-.379-1.438a2.738 2.738 0 0 0-.978-.921 2.48 2.48 0 0 0-1.219-.333c-.491 0-.936.131-1.334.391a2.96 2.96 0 0 0-.955 1.013 2.552 2.552 0 0 0-.357 1.288v2.347c0 .445.119.882.357 1.312.237.43.556.774.955 1.035s.834.391 1.31.391zM49.556 20.495c-.859 0-1.591-.249-2.197-.747s-.909-1.27-.909-2.312c0-.843.23-1.499.69-1.967.46-.468 1.093-.79 1.898-.966.805-.177 1.737-.265 2.795-.265h1.104v-.483c0-.46-.084-.909-.253-1.346a2.495 2.495 0 0 0-.794-1.082c-.36-.283-.855-.425-1.484-.425-.537 0-.962.054-1.277.161s-.563.218-.748.333-.345.173-.483.173c-.23 0-.407-.111-.529-.334a1.31 1.31 0 0 1-.184-.633c0-.245.168-.468.506-.667.337-.199.759-.36 1.265-.483a6.365 6.365 0 0 1 1.496-.184c1.073 0 1.932.215 2.577.645.644.43 1.108.981 1.392 1.656s.426 1.396.426 2.162v5.89c0 .185-.088.346-.265.483s-.403.207-.679.207a.946.946 0 0 1-.621-.207c-.169-.138-.253-.299-.253-.483v-.92c-.399.46-.882.874-1.45 1.242s-1.241.552-2.023.552zm.598-1.541c.445 0 .878-.122 1.3-.368.422-.245.774-.552 1.058-.92s.426-.721.426-1.059v-1.196h-.805c-.644 0-1.254.038-1.829.115s-1.039.241-1.392.494c-.353.254-.529.656-.529 1.208 0 .599.168 1.035.506 1.312.337.276.758.414 1.265.414zM61.22 20.312c-1.242 0-2.189-.276-2.841-.828-.652-.552-.978-1.434-.978-2.646V4.989c0-.199.1-.36.299-.483a1.257 1.257 0 0 1 1.312 0c.199.123.299.284.299.483v4.417h2.898c.184 0 .326.077.426.23s.149.33.149.529-.05.372-.149.518-.242.219-.426.219h-2.898v5.936c0 .659.141 1.123.426 1.392.283.269.777.402 1.483.402h.714c.275 0 .482.085.621.253a.89.89 0 0 1 .207.575c0 .215-.07.411-.207.587-.139.177-.346.265-.621.265h-.714zM66.947 20.495c-.859 0-1.591-.249-2.197-.747-.605-.498-.908-1.27-.908-2.312 0-.843.23-1.499.69-1.967s1.093-.79 1.897-.966c.806-.177 1.737-.265 2.796-.265h1.104v-.483c0-.46-.085-.909-.254-1.346a2.493 2.493 0 0 0-.793-1.082c-.361-.283-.855-.425-1.484-.425-.537 0-.963.054-1.277.161s-.562.218-.747.333-.345.173-.483.173c-.23 0-.406-.111-.529-.334a1.31 1.31 0 0 1-.184-.633c0-.245.168-.468.506-.667s.76-.36 1.266-.483a6.365 6.365 0 0 1 1.496-.184c1.072 0 1.932.215 2.576.645s1.107.981 1.392 1.656.426 1.396.426 2.162v5.89c0 .185-.089.346-.265.483s-.402.207-.679.207c-.245 0-.452-.069-.621-.207s-.253-.299-.253-.483v-.92c-.399.46-.883.874-1.449 1.242-.569.369-1.243.552-2.026.552zm.599-1.541c.444 0 .878-.122 1.3-.368a3.624 3.624 0 0 0 1.059-.92c.283-.368.426-.721.426-1.059v-1.196h-.806c-.644 0-1.254.038-1.829.115s-1.039.241-1.392.494c-.353.254-.529.656-.529 1.208 0 .599.169 1.035.507 1.312.335.276.757.414 1.264.414zM75.438 20.312a.358.358 0 0 1-.276-.127.413.413 0 0 1-.115-.287V9.844c0-.123.038-.219.115-.288a.403.403 0 0 1 .276-.104c.122 0 .222.035.299.104a.37.37 0 0 1 .115.288v1.22a3.618 3.618 0 0 1 1.772-1.497c.414-.168.889-.253 1.426-.253h.85c.107 0 .199.039.275.115a.405.405 0 0 1 .115.299.376.376 0 0 1-.115.276.366.366 0 0 1-.275.116h-.852c-.537 0-1.051.134-1.541.402a3.21 3.21 0 0 0-1.197 1.139c-.307.491-.459 1.089-.459 1.795v6.441a.418.418 0 0 1-.115.287.38.38 0 0 1-.298.128zM82.546 20.312a.358.358 0 0 1-.276-.127.418.418 0 0 1-.115-.287V3.034a.37.37 0 0 1 .115-.288.403.403 0 0 1 .276-.104c.122 0 .222.035.3.104a.37.37 0 0 1 .114.288v8.029c.261-.445.647-.848 1.162-1.208.514-.36 1.153-.541 1.921-.541.751 0 1.441.188 2.07.563.629.376 1.131.875 1.507 1.496s.563 1.314.563 2.082v6.441c0 .138-.042.241-.126.311a.445.445 0 0 1-.288.104.406.406 0 0 1-.264-.104c-.085-.069-.127-.173-.127-.311v-6.441c0-.567-.15-1.104-.449-1.61a3.727 3.727 0 0 0-1.185-1.243 2.922 2.922 0 0 0-1.634-.482c-.521 0-1.023.134-1.506.402a3.248 3.248 0 0 0-1.186 1.139c-.307.491-.46 1.089-.46 1.795v6.441a.416.416 0 0 1-.114.287.379.379 0 0 1-.298.128zM97.477 20.449c-.904 0-1.706-.176-2.404-.528a4.133 4.133 0 0 1-1.645-1.461c-.398-.622-.598-1.354-.598-2.197v-2.876c0-.736.188-1.415.562-2.036a4.266 4.266 0 0 1 1.496-1.483 3.923 3.923 0 0 1 2.036-.553c.721 0 1.392.181 2.013.541s1.119.851 1.496 1.472c.375.622.562 1.331.562 2.129 0 .552-.092.951-.275 1.196s-.418.395-.701.448c-.285.054-.596.08-.932.08h-5.453v1.082c0 1.043.368 1.867 1.104 2.473.735.606 1.663.909 2.784.909.644 0 1.135-.081 1.472-.242.337-.16.595-.317.771-.471s.334-.23.473-.23c.076 0 .145.022.207.069.061.046.11.1.148.161a.339.339 0 0 1 .059.184c0 .138-.127.314-.381.529-.252.215-.617.402-1.092.563-.476.161-1.042.241-1.702.241zm-3.842-6.073h5.176c.568 0 .939-.054 1.116-.161s.265-.337.265-.69c0-.552-.135-1.089-.402-1.61a3.481 3.481 0 0 0-1.139-1.288c-.491-.337-1.066-.506-1.726-.506-.614 0-1.17.153-1.668.46a3.46 3.46 0 0 0-1.185 1.196 3.09 3.09 0 0 0-.438 1.61v.989zM103.85 5.863a.705.705 0 0 1-.518-.218.707.707 0 0 1-.219-.518c0-.2.072-.368.219-.507a.724.724 0 0 1 .518-.207.69.69 0 0 1 .506.207c.138.139.207.308.207.507s-.069.371-.207.518a.67.67 0 0 1-.506.218zm0 14.449a.358.358 0 0 1-.276-.127.413.413 0 0 1-.115-.287V9.844c0-.123.038-.219.115-.288a.403.403 0 0 1 .276-.104c.122 0 .222.035.299.104a.37.37 0 0 1 .115.288v10.054a.418.418 0 0 1-.115.287.386.386 0 0 1-.299.127z" style="fill:#fff"/></svg>