<?xml version="1.0" encoding="utf-8"?>
<!-- Generator: Adobe Illustrator 15.0.0, SVG Export Plug-In . SVG Version: 6.00 Build 0)  -->
<!DOCTYPE svg PUBLIC "-//W3C//DTD SVG 1.1//EN" "http://www.w3.org/Graphics/SVG/1.1/DTD/svg11.dtd" [
	<!ENTITY ns_extend "http://ns.adobe.com/Extensibility/1.0/">
	<!ENTITY ns_ai "http://ns.adobe.com/AdobeIllustrator/10.0/">
	<!ENTITY ns_graphs "http://ns.adobe.com/Graphs/1.0/">
	<!ENTITY ns_vars "http://ns.adobe.com/Variables/1.0/">
	<!ENTITY ns_imrep "http://ns.adobe.com/ImageReplacement/1.0/">
	<!ENTITY ns_sfw "http://ns.adobe.com/SaveForWeb/1.0/">
	<!ENTITY ns_custom "http://ns.adobe.com/GenericCustomNamespace/1.0/">
	<!ENTITY ns_adobe_xpath "http://ns.adobe.com/XPath/1.0/">
]>
<svg version="1.1" id="Ebene_1" xmlns:x="&ns_extend;" xmlns:i="&ns_ai;" xmlns:graph="&ns_graphs;"
	 xmlns="http://www.w3.org/2000/svg" xmlns:xlink="http://www.w3.org/1999/xlink" x="0px" y="0px" width="127.135px"
	 height="26.934px" viewBox="0 0 127.135 26.934" style="enable-background:new 0 0 127.135 26.934;" xml:space="preserve">
<metadata>
	<sfw  xmlns="&ns_sfw;">
		<slices></slices>
		<sliceSourceBounds  height="-32766" width="-32766" y="24274" x="8592" bottomLeftOrigin="true"></sliceSourceBounds>
	</sfw>
</metadata>
<g>
	<g>
		<path style="fill-rule:evenodd;clip-rule:evenodd;fill:#FCEE21;" d="M5.393,19.211c2.338-1.368,0.002,0.006,2.338-1.368
			c1.277,1.981,1.916,4.573,4.488,4.963c2.645,0.401,5.234-1.227,6.379-2.319c2.406-2.297,3.859-8.114,1.449-11.164
			c-2.178-2.754-7.564-4.185-11.02-2.609C5.502,8.321,3.574,13.257,5.08,18.346c0.064,0.221,0.359,1.018,0.314,0.871
			c-3.615,1.994,0,0-3.615,1.994c-0.926-3.209-1.998-5.734-1.74-9.134C0.572,5.06,5.709-0.548,13.957,0.043
			c4.277,0.307,8.258,2.15,10.584,4.785c7.342,8.313-0.279,23.241-11.453,22.037c-3.553-0.383-6.062-3.358-7.359-6.768
			C5.572,19.687,5.402,19.238,5.393,19.211z"/>
	</g>
</g>
<g>
	<path style="fill:#FFFFFF;" d="M39.456,20.495c-0.721,0-1.392-0.21-2.013-0.632s-1.12-0.975-1.496-1.657
		c-0.376-0.682-0.563-1.406-0.563-2.174v-2.347c0-0.812,0.188-1.549,0.563-2.208c0.375-0.659,0.875-1.192,1.496-1.6
		c0.621-0.406,1.307-0.609,2.059-0.609c0.736,0,1.361,0.181,1.875,0.541c0.514,0.36,0.893,0.763,1.139,1.207V3.494
		c0-0.199,0.096-0.36,0.288-0.483c0.191-0.122,0.426-0.184,0.702-0.184s0.498,0.062,0.667,0.184
		c0.169,0.123,0.253,0.284,0.253,0.483v16.127c0,0.169-0.084,0.326-0.253,0.472c-0.169,0.146-0.391,0.219-0.667,0.219
		c-0.246,0-0.457-0.072-0.633-0.219c-0.176-0.146-0.265-0.303-0.265-0.472v-0.92c-0.23,0.476-0.636,0.894-1.219,1.254
		S40.162,20.495,39.456,20.495z M39.917,18.771c0.491,0,0.932-0.135,1.323-0.403c0.391-0.268,0.702-0.571,0.932-0.908
		c0.23-0.338,0.345-0.605,0.345-0.806v-2.968c0-0.567-0.126-1.047-0.379-1.438c-0.253-0.392-0.579-0.698-0.978-0.921
		c-0.399-0.222-0.805-0.333-1.219-0.333c-0.491,0-0.936,0.131-1.334,0.391c-0.399,0.262-0.717,0.599-0.955,1.013
		c-0.238,0.414-0.357,0.844-0.357,1.288v2.347c0,0.445,0.119,0.882,0.357,1.312c0.237,0.43,0.556,0.774,0.955,1.035
		S39.441,18.771,39.917,18.771z"/>
	<path style="fill:#FFFFFF;" d="M49.556,20.495c-0.859,0-1.591-0.249-2.197-0.747s-0.909-1.27-0.909-2.312
		c0-0.843,0.23-1.499,0.69-1.967c0.46-0.468,1.093-0.79,1.898-0.966c0.805-0.177,1.737-0.265,2.795-0.265h1.104v-0.483
		c0-0.46-0.084-0.909-0.253-1.346c-0.169-0.438-0.434-0.798-0.794-1.082c-0.36-0.283-0.855-0.425-1.484-0.425
		c-0.537,0-0.962,0.054-1.277,0.161s-0.563,0.218-0.748,0.333s-0.345,0.173-0.483,0.173c-0.23,0-0.407-0.111-0.529-0.334
		c-0.123-0.222-0.184-0.433-0.184-0.633c0-0.245,0.168-0.468,0.506-0.667c0.337-0.199,0.759-0.36,1.265-0.483
		c0.506-0.122,1.004-0.184,1.496-0.184c1.073,0,1.932,0.215,2.577,0.645c0.644,0.43,1.108,0.981,1.392,1.656
		s0.426,1.396,0.426,2.162v5.89c0,0.185-0.088,0.346-0.265,0.483s-0.403,0.207-0.679,0.207c-0.246,0-0.453-0.069-0.621-0.207
		c-0.169-0.138-0.253-0.299-0.253-0.483v-0.92c-0.399,0.46-0.882,0.874-1.45,1.242S50.338,20.495,49.556,20.495z M50.154,18.954
		c0.445,0,0.878-0.122,1.3-0.368c0.422-0.245,0.774-0.552,1.058-0.92s0.426-0.721,0.426-1.059v-1.196h-0.805
		c-0.644,0-1.254,0.038-1.829,0.115s-1.039,0.241-1.392,0.494c-0.353,0.254-0.529,0.656-0.529,1.208
		c0,0.599,0.168,1.035,0.506,1.312C49.226,18.816,49.647,18.954,50.154,18.954z"/>
	<path style="fill:#FFFFFF;" d="M61.22,20.312c-1.242,0-2.189-0.276-2.841-0.828c-0.652-0.552-0.978-1.434-0.978-2.646V4.989
		c0-0.199,0.1-0.36,0.299-0.483c0.199-0.122,0.414-0.184,0.644-0.184c0.246,0,0.468,0.062,0.668,0.184
		c0.199,0.123,0.299,0.284,0.299,0.483v4.417h2.898c0.184,0,0.326,0.077,0.426,0.23s0.149,0.33,0.149,0.529s-0.05,0.372-0.149,0.518
		s-0.242,0.219-0.426,0.219h-2.898v5.936c0,0.659,0.141,1.123,0.426,1.392c0.283,0.269,0.777,0.402,1.483,0.402h0.714
		c0.275,0,0.482,0.085,0.621,0.253c0.137,0.169,0.207,0.361,0.207,0.575c0,0.215-0.07,0.411-0.207,0.587
		c-0.139,0.177-0.346,0.265-0.621,0.265H61.22z"/>
	<path style="fill:#FFFFFF;" d="M66.947,20.495c-0.859,0-1.591-0.249-2.197-0.747c-0.605-0.498-0.908-1.27-0.908-2.312
		c0-0.843,0.23-1.499,0.69-1.967s1.093-0.79,1.897-0.966c0.806-0.177,1.737-0.265,2.796-0.265h1.104v-0.483
		c0-0.46-0.085-0.909-0.254-1.346c-0.168-0.438-0.434-0.798-0.793-1.082c-0.361-0.283-0.855-0.425-1.484-0.425
		c-0.537,0-0.963,0.054-1.277,0.161s-0.562,0.218-0.747,0.333s-0.345,0.173-0.483,0.173c-0.23,0-0.406-0.111-0.529-0.334
		c-0.123-0.222-0.184-0.433-0.184-0.633c0-0.245,0.168-0.468,0.506-0.667s0.76-0.36,1.266-0.483
		c0.506-0.122,1.004-0.184,1.496-0.184c1.072,0,1.932,0.215,2.576,0.645s1.107,0.981,1.392,1.656s0.426,1.396,0.426,2.162v5.89
		c0,0.185-0.089,0.346-0.265,0.483s-0.402,0.207-0.679,0.207c-0.245,0-0.452-0.069-0.621-0.207s-0.253-0.299-0.253-0.483v-0.92
		c-0.399,0.46-0.883,0.874-1.449,1.242C68.404,20.312,67.73,20.495,66.947,20.495z M67.546,18.954c0.444,0,0.878-0.122,1.3-0.368
		c0.422-0.245,0.774-0.552,1.059-0.92c0.283-0.368,0.426-0.721,0.426-1.059v-1.196h-0.806c-0.644,0-1.254,0.038-1.829,0.115
		s-1.039,0.241-1.392,0.494c-0.353,0.254-0.529,0.656-0.529,1.208c0,0.599,0.169,1.035,0.507,1.312
		C66.617,18.816,67.039,18.954,67.546,18.954z"/>
	<path style="fill:#FFFFFF;" d="M75.438,20.312c-0.107,0-0.2-0.042-0.276-0.127c-0.077-0.084-0.115-0.18-0.115-0.287V9.844
		c0-0.123,0.038-0.219,0.115-0.288c0.076-0.068,0.169-0.104,0.276-0.104c0.122,0,0.222,0.035,0.299,0.104
		c0.076,0.069,0.115,0.165,0.115,0.288v1.22c0.184-0.307,0.422-0.591,0.713-0.852s0.645-0.476,1.059-0.645
		c0.414-0.168,0.889-0.253,1.426-0.253H79.9c0.107,0,0.199,0.039,0.275,0.115c0.077,0.077,0.115,0.177,0.115,0.299
		c0,0.107-0.038,0.199-0.115,0.276C80.1,10.082,80.008,10.12,79.9,10.12h-0.852c-0.537,0-1.051,0.134-1.541,0.402
		c-0.491,0.269-0.891,0.648-1.197,1.139c-0.307,0.491-0.459,1.089-0.459,1.795v6.441c0,0.107-0.039,0.203-0.115,0.287
		C75.659,20.27,75.56,20.312,75.438,20.312z"/>
	<path style="fill:#FFFFFF;" d="M82.546,20.312c-0.107,0-0.2-0.042-0.276-0.127c-0.076-0.084-0.115-0.18-0.115-0.287V3.034
		c0-0.123,0.039-0.219,0.115-0.288c0.076-0.068,0.169-0.104,0.276-0.104c0.122,0,0.222,0.035,0.3,0.104
		c0.076,0.069,0.114,0.165,0.114,0.288v8.029c0.261-0.445,0.647-0.848,1.162-1.208c0.514-0.36,1.153-0.541,1.921-0.541
		c0.751,0,1.441,0.188,2.07,0.563c0.629,0.376,1.131,0.875,1.507,1.496s0.563,1.314,0.563,2.082v6.441
		c0,0.138-0.042,0.241-0.126,0.311c-0.085,0.069-0.181,0.104-0.288,0.104c-0.092,0-0.18-0.034-0.264-0.104
		c-0.085-0.069-0.127-0.173-0.127-0.311v-6.441c0-0.567-0.15-1.104-0.449-1.61c-0.299-0.507-0.693-0.921-1.185-1.243
		c-0.491-0.321-1.035-0.482-1.634-0.482c-0.521,0-1.023,0.134-1.506,0.402c-0.483,0.269-0.879,0.648-1.186,1.139
		c-0.307,0.491-0.46,1.089-0.46,1.795v6.441c0,0.107-0.038,0.203-0.114,0.287C82.768,20.27,82.668,20.312,82.546,20.312z"/>
	<path style="fill:#FFFFFF;" d="M97.477,20.449c-0.904,0-1.706-0.176-2.404-0.528c-0.697-0.354-1.246-0.84-1.645-1.461
		c-0.398-0.622-0.598-1.354-0.598-2.197v-2.876c0-0.736,0.188-1.415,0.562-2.036c0.377-0.621,0.875-1.116,1.496-1.483
		c0.621-0.368,1.3-0.553,2.036-0.553c0.721,0,1.392,0.181,2.013,0.541s1.119,0.851,1.496,1.472c0.375,0.622,0.562,1.331,0.562,2.129
		c0,0.552-0.092,0.951-0.275,1.196s-0.418,0.395-0.701,0.448c-0.285,0.054-0.596,0.08-0.932,0.08h-5.453v1.082
		c0,1.043,0.368,1.867,1.104,2.473c0.735,0.606,1.663,0.909,2.784,0.909c0.644,0,1.135-0.081,1.472-0.242
		c0.337-0.16,0.595-0.317,0.771-0.471s0.334-0.23,0.473-0.23c0.076,0,0.145,0.022,0.207,0.069c0.061,0.046,0.11,0.1,0.148,0.161
		c0.039,0.061,0.059,0.122,0.059,0.184c0,0.138-0.127,0.314-0.381,0.529c-0.252,0.215-0.617,0.402-1.092,0.563
		C98.703,20.369,98.137,20.449,97.477,20.449z M93.635,14.376h5.176c0.568,0,0.939-0.054,1.116-0.161s0.265-0.337,0.265-0.69
		c0-0.552-0.135-1.089-0.402-1.61c-0.269-0.521-0.648-0.95-1.139-1.288c-0.491-0.337-1.066-0.506-1.726-0.506
		c-0.614,0-1.17,0.153-1.668,0.46c-0.499,0.307-0.894,0.705-1.185,1.196c-0.292,0.491-0.438,1.027-0.438,1.61V14.376z"/>
	<path style="fill:#FFFFFF;" d="M103.85,5.863c-0.2,0-0.373-0.072-0.518-0.218c-0.146-0.146-0.219-0.318-0.219-0.518
		s0.072-0.368,0.219-0.507c0.145-0.138,0.317-0.207,0.518-0.207c0.199,0,0.367,0.069,0.506,0.207
		c0.138,0.139,0.207,0.308,0.207,0.507s-0.069,0.371-0.207,0.518C104.217,5.791,104.049,5.863,103.85,5.863z M103.85,20.312
		c-0.107,0-0.2-0.042-0.276-0.127c-0.077-0.084-0.115-0.18-0.115-0.287V9.844c0-0.123,0.038-0.219,0.115-0.288
		c0.076-0.068,0.169-0.104,0.276-0.104c0.122,0,0.222,0.035,0.299,0.104c0.076,0.069,0.115,0.165,0.115,0.288v10.054
		c0,0.107-0.039,0.203-0.115,0.287C104.071,20.27,103.972,20.312,103.85,20.312z"/>
</g>
</svg>
