<svg xmlns="http://www.w3.org/2000/svg" viewBox="0 -0.549 24 24">
  <path fill="#1EABE2" d="M8.12 0v5.272l8.175 5.708c.327.229.327.713 0 .941L8.12 17.629v5.273l15.581-10.878c.398-.278.398-.868 0-1.146L8.12 0z"/>
  <path fill="#1EABE2" d="M3.529 3.833v4.049l4.44 3.1c.326.228.326.711 0 .938l-4.44 3.1v4.048l10.09-7.043c.398-.278.398-.868 0-1.146L3.529 3.833z"/>
  <path fill="#1EABE2" d="M0 7.183v2.55l1.788 1.248c.327.229.327.712 0 .941L0 13.17v2.55l5.296-3.698c.396-.277.396-.864 0-1.141L0 7.183z"/>
</svg>
