<svg xmlns="http://www.w3.org/2000/svg" viewBox="-1.787 0 24 24">
  <path fill="#FFE115" d="M10.213 0c5.641 0 10.213 4.605 10.213 10.286C20.426 15.967 10.213 24 10.213 24S0 15.967 0 10.286C0 4.605 4.572 0 10.213 0zm0 3.673c-3.438 0-6.226 2.807-6.226 6.271 0 3.463 2.787 6.27 6.226 6.27s6.226-2.807 6.226-6.27c-.001-3.464-2.788-6.271-6.226-6.271z"/>
  <path fill="#FFE115" d="M10.212 7.114c-1.551 0-2.808 1.267-2.808 2.829s1.257 2.829 2.808 2.829c1.552 0 2.81-1.267 2.81-2.829s-1.258-2.829-2.81-2.829"/>
</svg>
