<svg xmlns="http://www.w3.org/2000/svg" xml:space="preserve" baseProfile="tiny" overflow="visible" version="1.2" viewBox="0 0 90.1 100">
  <path fill="white" d="M89 40.3C84.2 16.6 63.5 0 39.2 0H3.3C.9 0 0 .9 0 3.3v14.1c0 1.3.4 2.2 1.3 3.1 5.5 5.4 11 10.9 16.6 16.3.6.6 1.8 1 2.7 1 5.7.1 11.4 0 17.2.1 1.1 0 2.1.1 3.2.2 7.6.9 12.5 9 9.7 16.1-2 5-6.3 7.9-12.1 7.9H12.3c-3.1 0-3.7.6-3.7 3.8v13.8c0 1.1.3 2 1.1 2.8 5.6 5.5 11.1 11 16.7 16.4.5.5 1.4 1 2.1 1 5.6 0 11.2.2 16.7-.4 12.5-1.4 23.3-6.7 31.7-16.1C88 71.1 92.3 56.6 89 40.3zM17.4 24.8c-.2 1.3 0 2.7 0 4.4-1.5-1.4-2.8-2.6-4-3.9l-7.5-7.5c-.4-.4-.7-1-.7-1.5-.1-2.6 0-5.1 0-8.1 3.1 2.9 5.7 5.7 8.8 8.1 2.8 2.3 3.9 5 3.4 8.5zm8.4 66.4c-.4-.3-.7-.5-.9-.7-3.6-3.5-7.2-7.1-10.7-10.6-.3-.3-.6-.8-.6-1.2-.1-2.7 0-5.3 0-8.3 4.1 3.9 8 7.5 11.8 11.1.2.2.4.5.4.7v9zm3.3-13.3C25.4 74.5 21.7 71 18 67.5c0-.1.1-.2.1-.3h20.7c8.6-.1 15.5-5.5 17.3-13.5 2.2-9.5-4.6-19.4-14.3-20.4-5-.5-10.1-.3-15.1-.3h-4V22c.3 0 .6-.1.9-.1 5.6 0 11.1-.1 16.7 0 13.1.2 25 10.5 27.1 23.4 2.8 17.3-10.1 32.7-27.6 33-3.1.1-6.2 0-9.3 0-.5-.1-1.1-.2-1.4-.4zm31.4 11.9c-7 3.5-14.3 5.2-22.1 5.2H31V83.2h1.8c4.7-.1 9.5.2 14.2-.9 13.2-3 23.4-13.9 25.5-27.3 2.8-17.4-9.3-34.5-26.7-37.6-3.2-.6-6.5-.6-9.8-.7-4.4-.1-8.8 0-13.2 0-.5 0-1.2-.1-1.6-.4-4-3.6-7.9-7.3-12.1-11.2.7 0 1.1-.1 1.5-.1h29.2c22.2.1 41.3 16.6 44.6 38.4 2.9 18.7-7 37.9-23.9 46.4z"/>
</svg>
