<svg xmlns="http://www.w3.org/2000/svg" viewBox="0 -0.221 24 24">
  <path fill="#EAD726" d="M12.556 23.363c-.359 0-.727-.02-1.089-.059-2.697-.291-4.984-2.403-6.274-5.793-.087-.229-.179-.471-.235-.623.552-.321.845-.494.872-.508l-.028.006c.077-.035.277-.152.896-.518.221.36.424.745.622 1.116.75 1.417 1.524 2.88 3.339 3.155.248.039.506.056.762.056 2.026 0 3.95-1.15 4.981-2.138 2.066-1.97 3.549-7.164 1.287-10.025-1.363-1.723-4.201-2.926-6.904-2.926-1.097 0-2.122.202-2.969.586-3.283 1.499-4.846 6.069-3.563 10.409.038.121.146.425.219.619l-2.797 1.543c-.128-.432-.258-.848-.382-1.255C.624 14.84.046 12.97.228 10.577.699 4.367 5.1.197 11.174.197c.335 0 .676.011 1.019.036 3.614.258 7.11 1.838 9.124 4.118 2.742 3.105 3.258 7.667 1.346 11.906-1.949 4.316-5.915 7.106-10.107 7.106z" opacity=".9"/>
  <path fill="#FF0" d="M11.174.391c.329 0 .667.014 1.005.037 3.563.257 7.01 1.81 8.993 4.056 2.688 3.042 3.191 7.524 1.312 11.691-.91 2.012-2.277 3.733-3.961 4.974-1.789 1.319-3.852 2.021-5.967 2.021-.353 0-.713-.021-1.069-.061-3.722-.4-5.516-4.098-6.111-5.669-.062-.161-.126-.331-.178-.465.45-.265.693-.405.725-.423l-.005-.009c.111-.058.31-.171.712-.407.181.307.352.627.517.941.771 1.459 1.569 2.967 3.482 3.256.257.039.523.061.791.061 2.083 0 4.057-1.182 5.116-2.191 2.117-2.021 3.629-7.348 1.305-10.29-1.398-1.77-4.301-3.002-7.057-3.002-1.14 0-2.167.203-3.049.605-3.423 1.562-4.998 6.138-3.666 10.642.028.098.098.295.162.473l-1.282.707-1.154.638c-.105-.35-.21-.69-.313-1.024-.662-2.146-1.235-4-1.057-6.356.215-2.844 1.33-5.408 3.143-7.228C5.508 1.419 8.139.391 11.174.391m0-.391C4.565 0 .477 4.724.034 10.562c-.227 2.974.712 5.183 1.521 7.988 3.16-1.742.002 0 3.158-1.742-.037-.092-.224-.6-.271-.764-1.317-4.449.369-8.764 3.453-10.174.862-.391 1.857-.571 2.888-.571 2.588 0 5.389 1.132 6.75 2.854 2.109 2.668.838 7.755-1.268 9.764-.895.855-2.799 2.084-4.846 2.084-.243 0-.488-.018-.734-.053-2.249-.343-2.807-2.61-3.925-4.344-.989.584-1.021.602-1.021.602-.001 0-.036.018-1.024.596.011.025.159.416.296.775 1.133 2.981 3.328 5.586 6.438 5.918.373.041.744.062 1.108.062 9.155 0 15.083-12.342 8.909-19.336C19.431 1.917 15.948.305 12.208.036 11.855.014 11.512 0 11.174 0zM4.717 16.806c-.001.002-.001.002-.003.002.004.011.006.016.006.016.002 0 0-.005-.003-.018z"/>
</svg>
