<svg xmlns="http://www.w3.org/2000/svg" viewBox="-1.117 0 24 24">
  <path fill="#7294F4" d="M10.858 2.067v10.936H.002L10.858 2.067z"/>
  <path fill="#7294F4" d="M10.858 13.006H.002c-.001 0-.002-.001-.002-.001v-.002L10.856 2.066s.001-.001.002 0c.001 0 .001.001.001.002v10.936c.001.001.001.002-.001.002zM.007 13.002h10.849V2.072L.007 13.002z"/>
  <path fill="#546DB2" d="M10.858 23.999V12.992H.002l10.856 11.007z"/>
  <path fill="#546DB2" d="M10.858 24h-.001L0 12.994v-.003s.001-.001.002-.001h10.856c.002 0 .002.001.002.002v11.006c0 .001 0 .002-.002.002zM.007 12.995l10.849 10.998V12.995H.007z"/>
  <path fill="#546DB2" d="M21.763 13.094l-10.926-.017.017-11.007 10.909 11.024z"/>
  <path fill="#546DB2" d="M21.763 13.096l-10.926-.016h-.002v-.002l.016-11.008c0-.001.001-.001.001-.002.001 0 .002 0 .002.001l10.91 11.023s.001 0 .001.002c.001.001 0 .002-.002.002zm-10.924-.02l10.918.016L10.855 2.076l-.016 11z"/>
  <path fill="#303F6A" d="M21.763 13.056l-10.926.017.017 10.922 10.909-10.939z"/>
  <path fill="#303F6A" d="M10.854 23.997c-.001 0-.001 0 0 0-.001 0-.002 0-.002-.002l-.016-10.922c0-.001 0-.002.001-.002 0-.001.001-.001.001-.001l10.926-.016c.001 0 .002.001.003.001 0 .001 0 .002-.001.003L10.854 23.997zm-.015-10.922l.016 10.914 10.903-10.93-10.919.016z"/>
  <path fill="#F2F2F2" d="M2.257 16.072c-.354.337-.522 2.12-.152 2.418.262.211.1-.065.498.005.397.071.395.261.395.261l1.758.106c.747-.03 1.217-.232 1.56-.511l.334-1.435c-.334-.65-.74-.816-1.157-.916-1.184-.074-2.617-.516-3.236.072z"/>
  <path d="M4.755 18.978h-.007l-1.757-.107c-.059-.004-.105-.05-.109-.108-.006-.03-.071-.113-.3-.154-.038-.007-.072-.011-.1-.011-.062 0-.081.017-.105.036-.025.02-.066.053-.129.053-.07 0-.135-.041-.216-.106-.148-.118-.231-.39-.248-.804-.014-.324.017-.7.084-1.034.052-.259.148-.601.31-.753.127-.123.293-.211.492-.265.173-.046.372-.068.61-.068.386 0 .826.06 1.251.12.324.044.659.09.969.109.007 0 .013.002.02.004.196.046.427.113.649.268.231.159.422.392.584.707.012.024.016.051.01.077l-.335 1.436c-.006.026-.02.048-.04.063-.196.161-.413.279-.662.368-.28.1-.596.154-.965.17-.002-.001-.004-.001-.006-.001zm-1.672-.333l1.673.102c.624-.027 1.088-.174 1.455-.461l.316-1.354c-.316-.592-.693-.73-1.051-.815-.316-.021-.652-.067-.977-.111-.437-.061-.849-.119-1.219-.119-.45 0-.75.087-.943.27-.088.085-.179.322-.242.633-.064.316-.093.673-.081.979.016.382.094.579.163.632.03.025.05.039.062.048.039-.031.108-.079.243-.079.042 0 .088.003.14.014.297.05.415.169.461.261z"/>
  <path fill="#F2F2F2" d="M2.726 15.425c.061-.644.193-1.197.407-1.451.52-.284.984-.343 1.393-.179l1.13.091h1.098c.307-.012.454.207.444.655l-.089 1.312c-.236.501-.398.168-1.077.377-1.098.337-2.399-.021-3.477-.146l.171-.659z"/>
  <path d="M4.984 16.486c-.56 0-1.125-.088-1.674-.175-.269-.043-.524-.083-.77-.112-.034-.003-.063-.021-.083-.049-.019-.028-.024-.062-.016-.094l.169-.652c.05-.512.164-1.187.432-1.504.01-.011.021-.02.033-.026.346-.188.673-.284.976-.284.174 0 .341.031.5.093l1.109.087h1.092c.008 0 .016-.001.024-.001.147 0 .269.048.359.14.126.13.184.337.178.636v.005l-.089 1.312c-.001.015-.004.028-.01.041-.074.155-.146.248-.236.303-.096.059-.196.063-.292.063h-.057c-.021-.002-.042-.002-.065-.002-.127 0-.287.009-.5.075-.318.098-.672.144-1.08.144zM2.7 15.987c.209.026.423.061.647.096.539.085 1.096.174 1.637.174.384 0 .716-.045 1.013-.137.241-.074.422-.083.567-.083h.122c.139 0 .204 0 .309-.213l.087-1.288c.004-.225-.035-.386-.112-.466-.046-.047-.109-.068-.193-.068H5.646l-1.129-.091c-.012 0-.023-.004-.034-.007-.137-.055-.281-.083-.431-.083-.258 0-.542.082-.845.245-.085.107-.162.286-.224.518-.064.236-.112.522-.143.853-.001.005-.002.012-.003.018l-.137.532z"/>
  <path fill="#F2F2F2" d="M6.434 18.349c.479.757.821.707 1.435-.145l.395-1.186c.222-.568.406-.971.25-1.362l-.342-.173-.642.059c-.585-.025-.966.675-.923 1.098l-.173.845v.864z"/>
  <path d="M7.061 18.998c-.132 0-.257-.053-.383-.161-.108-.094-.22-.231-.343-.425-.011-.018-.018-.039-.018-.062l.001-.864c0-.009.001-.016.002-.022l.169-.829c-.011-.133.014-.285.071-.441.059-.164.15-.316.263-.442.09-.098.189-.176.296-.23.12-.062.247-.092.377-.092h.029l.634-.059c.021-.002.043.002.063.013l.343.173c.025.013.044.034.055.061.161.405 0 .812-.202 1.325-.015.039-.031.077-.047.118l-.394 1.184c-.003.011-.009.021-.016.03-.176.244-.321.412-.457.529-.155.13-.3.194-.443.194zm-.513-.682c.199.309.362.451.512.451.175 0 .399-.196.703-.616l.39-1.169c.001-.002.002-.003.002-.005.016-.043.033-.084.048-.122.184-.465.318-.807.216-1.114l-.272-.139-.607.055c-.005.002-.011.002-.016.002-.009-.002-.019-.002-.027-.002-.229 0-.399.135-.501.248-.181.2-.296.505-.273.725.001.011 0 .023-.002.034l-.171.832-.002.82z"/>
  <path fill="#F2F2F2" d="M4.306 13.453c-.112-.337-.112-.631 0-.883.165-.225.35-.362.556-.411.317-.239.659-.266 1.002-.261h.969l.927-.083.69.246.393.346-.056 1.096-1.037.286-2.377-.087c-.362.069-.717-.014-1.067-.249z"/>
  <path d="M7.75 13.904h-.004l-2.364-.085c-.084.014-.169.021-.253.021-.3 0-.598-.098-.887-.292-.021-.014-.037-.034-.045-.06-.122-.362-.12-.688.003-.966.003-.008.008-.015.012-.021.174-.238.375-.389.599-.449.145-.106.304-.178.483-.221.145-.034.3-.05.506-.05h1.027l.923-.081c.017-.002.034 0 .049.006l.691.247c.013.005.027.012.037.022l.394.346c.026.023.041.058.039.093l-.057 1.096c-.001.05-.036.093-.084.105l-1.037.284c-.011.003-.021.005-.032.005zm-2.376-.318h.004l2.359.085.94-.258.049-.956-.335-.294-.646-.231-.901.081h-.979-.063c-.288 0-.592.029-.87.239-.012.009-.027.016-.042.02-.175.041-.336.161-.481.355-.09.212-.091.465-.003.751.239.153.483.231.725.231.073 0 .149-.008.223-.021.005-.001.012-.002.02-.002z"/>
  <path fill="#F2F2F2" d="M8.071 15.147l.596-.949c.35-.319.877-.675 1.039-.862.439-.2 1.252.286 1.024.767l-.422.479c-.76.695-1.383 1.162-1.708 1.129l-.529-.564z"/>
  <path d="M8.634 15.828c-.016 0-.031 0-.046-.002-.028-.004-.053-.017-.073-.035l-.529-.563c-.036-.037-.042-.096-.014-.141l.596-.951c.006-.009.012-.017.02-.023.167-.151.374-.312.556-.454.204-.159.396-.308.474-.399.011-.014.025-.023.04-.03.082-.037.176-.057.279-.057.156 0 .329.045.484.127.159.083.29.199.37.327.107.17.123.356.042.524-.004.011-.011.02-.018.027l-.422.479-.009.009c-.877.803-1.417 1.162-1.75 1.162zm-.418-.695l.435.464c.096-.007.276-.065.603-.292.261-.183.579-.447.971-.806l.407-.46c.039-.094.027-.189-.036-.288-.122-.195-.412-.348-.659-.348-.06 0-.115.009-.162.027-.099.107-.281.247-.488.409-.176.136-.373.289-.531.432l-.54.862z"/>
  <path fill="#F2F2F2" d="M12.691 13.504l-1.07-.32-.933.209v.95c.27-.009.555.071.854.241l.649.325.627.317.436-.505-.06-.851-.503-.366z"/>
  <path d="M12.818 15.343c-.018 0-.036-.005-.053-.014l-.626-.317-.648-.324c-.002 0-.003-.001-.005-.003-.266-.15-.52-.227-.757-.227h-.035c-.032.001-.062-.011-.085-.032-.022-.022-.035-.053-.035-.083v-.95c0-.055.037-.102.09-.113l.933-.209c.019-.004.039-.003.059.002l1.068.32c.013.004.025.01.036.019l.503.367c.027.021.044.052.047.085l.06.852c.002.029-.009.06-.027.083l-.437.505c-.022.026-.055.039-.088.039zm-1.22-.86l.646.322.001.002.546.276.345-.4-.052-.749-.444-.324-1.021-.307-.812.182v.744c.252.014.518.099.791.254z"/>
  <path fill="#F2F2F2" d="M13.708 14.539l.648.321.845.5c.418.312.523.636.317.969l-.923.675-1.026-1.093-.667-.666c-.353-.19-.007-.425.806-.706z"/>
  <path d="M14.596 17.119c-.031 0-.062-.013-.085-.035l-1.024-1.092-.654-.653c-.056-.032-.097-.065-.128-.103-.04-.05-.06-.108-.056-.169.01-.12.11-.228.315-.343.163-.091.395-.188.707-.294.028-.011.061-.009.089.005l.647.32.009.006.844.499c.003.002.007.004.011.006.228.172.373.351.433.534.063.195.035.394-.088.589-.007.012-.018.024-.029.033l-.923.675c-.02.015-.046.022-.068.022zm-1.716-2.034c.003.005.019.026.077.058.01.006.02.013.026.02l.668.666c.001.002.002.002.003.004l.955 1.017.822-.601c.103-.175.169-.444-.295-.793l-.835-.494-.601-.298c-.269.094-.476.181-.616.259-.175.095-.2.152-.204.162z"/>
  <path fill="#F2F2F2" d="M15.976 16.562l.359.844.183.915-.581.392c-.493.006-.61-.271-.785-.531-.196-.259-.612-.682-.593-1.134l.601-.475c.211-.28.483-.283.816-.011z"/>
  <path d="M15.923 18.83c-.49 0-.661-.264-.812-.498-.018-.026-.036-.055-.054-.083-.03-.039-.065-.083-.104-.129-.104-.132-.235-.293-.337-.47-.125-.218-.182-.416-.173-.605.001-.034.017-.065.043-.087l.591-.466c.128-.163.279-.246.45-.246.161 0 .336.076.521.229.014.011.025.026.032.042l.36.844c.002.007.005.016.007.022l.183.916c.009.046-.011.092-.049.118l-.58.392c-.02.015-.042.021-.063.021h-.015zm-1.25-1.726c.014.319.27.635.46.868.04.05.078.098.111.14l.003.006c.021.03.04.06.059.088.138.215.248.385.595.392l.488-.329-.165-.829-.343-.804c-.134-.106-.253-.16-.354-.16s-.19.056-.275.169c-.007.007-.013.014-.021.021l-.558.438z"/>
  <path fill="#F2F2F2" d="M5.251 11.535c-.044-.261.126-.525.66-.79l.985-.239c.345-.018.485.142.421.478.12.288.05.504-.21.648l-1.237.201c-.245.037-.452-.062-.619-.298z"/>
  <path d="M5.772 11.956c-.241 0-.447-.12-.615-.354-.01-.014-.017-.031-.02-.048-.029-.17.017-.333.136-.484.119-.152.311-.292.586-.429.007-.004.016-.007.024-.009l.986-.239c.007-.001.014-.003.021-.003.019 0 .039-.001.057-.001.184 0 .32.052.405.155.084.101.112.245.083.427.059.157.068.3.027.426-.044.136-.145.249-.301.335-.011.007-.024.011-.038.014l-1.235.201h-.001c-.038.006-.077.009-.115.009zm-.41-.466c.119.158.253.235.41.235.025 0 .053-.003.081-.006l1.214-.198c.193-.114.237-.267.143-.493-.009-.021-.01-.043-.007-.066.018-.088.026-.206-.027-.271-.042-.051-.131-.075-.262-.07l-.962.233c-.235.118-.401.238-.496.359-.073.09-.103.182-.094.277z"/>
  <path fill="#F2F2F2" d="M6.274 9.642l.857-.41.939-.555h1.979c.351.081.53.366.537.857.15.288.053.455-.291.5l-1.927.238H7.031c-.628.185-.881-.024-.757-.63z"/>
  <path d="M6.651 10.452c-.183 0-.321-.056-.41-.167-.117-.143-.143-.36-.081-.667.007-.036.031-.066.064-.081l.852-.407.936-.553c.018-.01.039-.016.059-.016h1.979c.009 0 .018.001.026.003.206.047.363.157.469.326.098.154.15.361.157.615.079.164.089.304.031.415-.034.066-.09.119-.168.158-.068.034-.151.057-.253.07h-.001l-1.927.239c-.004 0-.01.001-.014.001H7.047c-.151.042-.284.064-.396.064zm-.274-.731c-.034.198-.019.342.043.419.045.055.121.082.231.082.094 0 .21-.021.347-.06.011-.004.021-.005.033-.005h1.33l1.919-.238c.133-.017.221-.055.247-.105.024-.045.008-.126-.044-.227-.008-.016-.012-.033-.012-.051-.006-.428-.149-.672-.435-.743H8.102l-.912.538c-.003.002-.005.003-.009.005l-.804.385z"/>
  <path fill="#F2F2F2" d="M7.533 11.625c.618.114 1.133.198 1.447.084l1.348-.025c.681.012 1.158-.085 1.432-.289-.047-.52-.249-.935-.604-1.246-.347-.058-.703-.125-1.166-.067-.395-.104-.969-.037-1.623.067-.222-.007-.486.08-.793.261l-.041 1.215z"/>
  <path d="M8.599 11.879c-.304 0-.687-.066-1.086-.141-.057-.011-.097-.06-.095-.117l.042-1.215c.001-.04.022-.076.057-.096.312-.183.591-.276.827-.276h.018c.39-.062.799-.119 1.149-.119.19 0 .35.016.488.05.117-.014.231-.021.348-.021.289 0 .537.042.777.083.018.002.035.005.052.009.021.003.042.013.058.027.377.329.594.775.644 1.323.003.04-.014.079-.046.103-.143.106-.335.187-.571.238-.229.049-.506.075-.826.075-.034 0-.069-.001-.104-.001l-1.328.024c-.112.036-.244.054-.404.054zm-.947-.35c.353.064.687.119.947.119.143 0 .254-.016.342-.048.012-.004.025-.007.038-.007l1.348-.024h.106c.555 0 .961-.078 1.206-.231-.053-.445-.233-.808-.535-1.082-.006-.001-.014-.002-.021-.003-.23-.039-.469-.079-.738-.079-.114 0-.226.007-.341.021-.014.002-.029.001-.043-.002-.123-.032-.271-.048-.452-.048-.337 0-.74.056-1.124.117-.007.001-.014.002-.021.002-.186-.006-.414.065-.677.213l-.035 1.052z"/>
  <path fill="#F2F2F2" d="M9.4 11.838c-.363.237-.47.57-.322 1 .117.279.394.448.828.507l1.214-.176c.468-.04.887-.1.956-.303l.008-.648c.008-.395-.459-.53-1.143-.664l-1.541.284z"/>
  <path d="M9.907 13.459h-.016c-.477-.065-.785-.259-.918-.577-.001-.002-.002-.004-.003-.007-.082-.238-.093-.455-.032-.645.061-.191.196-.356.398-.489.013-.008.027-.014.042-.017l1.543-.284c.014-.002.028-.002.042 0 .365.072.651.141.86.245.121.06.211.129.273.211.07.093.104.201.103.323l-.007.647c0 .013-.003.025-.007.037-.046.132-.179.226-.408.286-.189.05-.432.075-.644.093l-1.211.176c-.005.001-.01.001-.015.001zm-.72-.663c.1.235.335.376.72.432l1.197-.173c.003-.001.005-.001.007-.001.204-.018.435-.041.607-.086.168-.044.225-.094.243-.126l.008-.625v-.001c.002-.098-.026-.213-.249-.323-.182-.091-.443-.154-.779-.22l-1.497.275c-.302.206-.385.477-.257.848z"/>
  <path fill="#F2F2F2" d="M16.711 18.472c.69.223 1.383.186 2.075.111l.711-.406c.143-.34.203-.808.179-1.398l-.323-.589-.59-.235-.92-.059-1.301.183c-.528-.09-.729.115-.607.615l.325.913.451.865z"/>
  <path d="M17.885 18.755c-.45 0-.845-.057-1.209-.174-.029-.009-.053-.03-.067-.057l-.451-.864c-.003-.006-.005-.011-.007-.016l-.324-.913c-.002-.003-.002-.007-.003-.01-.032-.128-.044-.241-.037-.337.009-.106.041-.196.096-.268.092-.115.24-.176.441-.176.066 0 .141.008.22.02l1.283-.181c.008-.001.016-.001.023 0l.921.059c.012.002.024.004.035.009l.589.234c.025.011.046.028.059.053l.324.588c.009.017.013.034.015.052.012.301.002.574-.028.812-.03.241-.085.456-.159.635-.011.022-.027.042-.05.055l-.712.405c-.014.009-.029.015-.045.017-.269.029-.587.057-.914.057zm-1.093-.379c.327.099.687.148 1.093.148.307 0 .607-.026.864-.055l.656-.374c.123-.315.176-.747.156-1.286l-.291-.527-.533-.213-.89-.059-1.29.183c-.011.002-.023.002-.035-.002-.073-.012-.141-.018-.199-.018-.127 0-.214.028-.26.087-.057.072-.063.211-.018.398l.32.899.427.819z"/>
  <path fill="#F2F2F2" d="M15.682 13.649l1.1-.085h.566c.711-.132 1.167.124 1.163.763.27.398.314.681.104 1.178-.13.104-.344.195-1.137.191l-.521.089-.841.006-.676-.961.242-1.181z"/>
  <path d="M16.115 15.905c-.038 0-.072-.018-.095-.049l-.675-.959c-.019-.026-.025-.058-.019-.09l.241-1.182c.011-.051.054-.088.104-.092l1.1-.085c.003-.001.006-.001.009-.001h.556c.123-.022.24-.033.35-.033.146 0 .278.02.395.061.122.042.226.104.31.188.151.152.23.363.235.628.142.215.213.394.231.576.021.199-.021.41-.137.684-.007.018-.02.031-.034.044-.167.133-.419.216-1.158.216h-.041l-.512.087c-.005.002-.011.002-.018.002l-.842.005zm-.552-1.1l.611.868.771-.004.512-.089c.007 0 .014-.001.021-.001h.05c.663 0 .879-.069.991-.147.176-.427.149-.664-.104-1.04-.014-.02-.021-.042-.02-.065.001-.218-.056-.386-.169-.5-.12-.119-.301-.181-.54-.181-.099 0-.205.01-.318.031-.006.001-.013.001-.021.001h-.562l-1.008.079-.214 1.048z"/>
  <path fill="#F2F2F2" d="M14.959 13.649h-1.397c-.49-.061-.835-.208-1.032-.443-.236-.188-.354-.462-.35-.82-.1-.179-.03-.356.208-.533l1.039-.089h2.755l.41.328.447.324.208.861c-.501.212-.868.367-1.103.313-.227.086-.623.053-1.185.059z"/>
  <path d="M15.545 13.766c-.063 0-.129-.001-.198-.001-.078-.001-.158-.001-.244-.001h-.143H13.549c-.256-.032-.478-.087-.659-.165-.184-.079-.332-.184-.441-.311-.252-.205-.381-.5-.385-.875-.053-.111-.058-.227-.015-.337.044-.11.132-.214.27-.316.018-.013.038-.021.06-.022l1.04-.089c.003-.001.007-.001.009-.001h2.755c.026 0 .052.009.071.026l.408.326.446.323c.021.017.037.04.044.066l.208.861c.014.055-.015.111-.067.134l-.015.006c-.45.19-.775.328-1.029.328-.034 0-.064-.003-.095-.008-.149.046-.339.056-.609.056zm-.442-.233c.086 0 .168.001.246.001.068.001.134.002.196.002.258 0 .44-.009.559-.055.021-.008.044-.01.066-.004.023.005.049.008.078.008.194 0 .49-.12.864-.277l-.176-.724-.413-.299c-.001-.001-.003-.002-.005-.003l-.378-.303h-2.708l-1.002.086c-.086.068-.142.133-.166.195-.022.057-.017.11.016.169.01.018.015.037.015.058-.003.324.097.562.306.729.007.004.013.01.018.016.176.21.496.346.951.402h1.389c.046-.001.094-.001.144-.001z"/>
  <path fill="#F2F2F2" d="M11.679 10.298l1.755-.125 1.051-.031c.116-.112.502-.112 1.159 0 .366.259.506.546.417.861.021.178-.085.385-.32.619h-2.083c-.437.14-.813.185-1.132.134-.31.011-.589-.06-.835-.214l-.135-.356.123-.888z"/>
  <path d="M12.793 11.892c-.095 0-.186-.007-.272-.02-.019 0-.038.001-.057.001-.306 0-.586-.079-.833-.232-.021-.014-.038-.034-.047-.058l-.135-.356c-.007-.018-.009-.038-.006-.057l.123-.888c.007-.054.051-.096.106-.1l1.756-.124h.004l1.014-.03c.086-.058.221-.085.419-.085s.467.029.801.086c.018.003.033.009.047.02.198.14.339.293.417.454.078.162.096.334.051.511.007.105-.02.217-.079.332-.058.113-.151.234-.276.358-.021.022-.051.034-.082.034h-2.065c-.326.102-.623.154-.886.154zm-.267-.252c.007 0 .013 0 .019.001.079.013.162.019.248.019.244 0 .522-.049.83-.148.012-.004.023-.006.035-.006h2.034c.183-.189.271-.359.255-.49-.001-.015 0-.03.003-.044.073-.259-.042-.495-.351-.72-.309-.052-.556-.078-.736-.078-.232 0-.288.042-.297.051-.021.02-.048.032-.077.032l-1.049.031-1.66.117-.105.766.11.292c.202.118.43.177.679.177.02 0 .04 0 .06-.001 0 .001.001.001.002.001z"/>
  <path fill="#F2F2F2" d="M10.573 8.67c.27-.105.583-.173.94-.204.461-.182 1.175.005 1.676.114.345-.062.61.026.797.265.185.162.469.656.283.87.023.313-.071.455-.283.424h-1.129l-1.278.09c-.434-.073-.67-.31-.708-.712-.129-.265-.229-.487-.298-.847z"/>
  <path d="M11.579 10.344c-.006 0-.013 0-.019-.001-.24-.041-.431-.129-.566-.265-.132-.133-.212-.311-.236-.528-.125-.258-.229-.489-.299-.856-.011-.055.02-.109.071-.13.274-.107.597-.178.958-.21.14-.052.304-.078.5-.078.361 0 .765.09 1.09.163.04.009.078.017.114.025.07-.011.138-.017.201-.017.281 0 .509.108.679.32.193.176.505.687.316.983.009.19-.027.325-.107.411-.06.064-.143.098-.24.098-.02 0-.04-.001-.062-.004h-1.117l-1.274.089h-.009zm-.872-1.599c.065.293.154.487.269.721.006.012.01.025.011.04.033.347.223.54.599.607l1.264-.088h1.138c.006 0 .012 0 .017.001.014.002.025.003.037.003.043 0 .062-.013.072-.024.018-.019.057-.085.042-.28-.002-.031.008-.061.028-.084.05-.057.041-.182-.023-.334-.065-.159-.175-.308-.248-.372-.007-.005-.011-.011-.016-.016-.126-.161-.29-.239-.503-.239-.058 0-.118.005-.184.017-.015.003-.029.003-.045-.001-.044-.01-.089-.02-.137-.03-.313-.07-.704-.157-1.04-.157-.172 0-.316.022-.432.067-.01.004-.021.007-.032.008-.306.023-.58.079-.817.161z"/>
  <path fill="#F2F2F2" d="M8.848 8.102c.096-.246.324-.331.57-.393.465-.27 1.516-.354 1.795-.076l.257.371c-.018.302-.141.509-.537.423l-1.485.18c-.418.072-.601-.067-.6-.505z"/>
  <path d="M9.259 8.74c-.161 0-.282-.043-.372-.132-.105-.106-.156-.271-.156-.506 0-.015.003-.029.008-.042.054-.138.145-.243.277-.322.114-.068.244-.107.358-.136.137-.077.32-.141.53-.187.207-.045.426-.068.632-.068.251 0 .588.035.759.205.004.005.01.01.014.016l.257.371c.015.021.022.046.021.073-.01.163-.047.287-.113.378-.085.115-.211.174-.375.174-.051 0-.109-.006-.169-.019l-1.466.176c-.075.013-.143.019-.205.019zm-.296-.615c.002.156.032.263.088.32.043.043.112.064.208.064.049 0 .105-.005.168-.017h.006l1.486-.179c.013-.001.027-.001.039.002.051.011.098.017.139.017.117 0 .163-.045.188-.079.035-.047.057-.121.066-.217l-.228-.327c-.091-.083-.31-.132-.589-.132-.389 0-.825.096-1.06.232-.009.005-.019.01-.029.012-.239.061-.406.134-.482.304z"/>
  <path fill="#F2F2F2" d="M15.164 13.756c.459.156.508.593.499 1.07.228.584.151.855-.229.812-.515-.217-1.42-.461-1.704-1.019-.529-.39-.365-.612-.179-.9l1.613.037z"/>
  <path d="M15.51 15.758c-.028 0-.057-.002-.088-.006-.012-.001-.022-.005-.032-.009-.089-.037-.193-.076-.303-.118-.26-.098-.555-.209-.818-.356-.306-.17-.511-.357-.628-.573-.253-.19-.375-.366-.383-.551-.008-.174.086-.317.185-.47l.013-.019c.021-.033.06-.054.099-.053l1.612.037c.012 0 .023.002.035.006.127.043.233.107.318.194.076.078.136.176.178.29.076.21.085.456.081.674.149.39.167.645.059.803-.047.069-.143.151-.328.151zm-.047-.234c.018.002.032.002.047.002.104 0 .129-.037.137-.05.027-.04.074-.181-.091-.608-.006-.015-.008-.028-.008-.043.003-.203-.001-.433-.067-.614-.062-.17-.17-.277-.338-.339l-1.529-.035c-.071.11-.129.208-.125.299.006.113.106.24.31.39.016.011.027.025.036.041.093.185.271.348.547.501.249.139.535.247.787.343.104.039.205.076.294.113z"/>
  <path fill="#F2F2F2" d="M7.356 13.932c.767-.579 1.141-.348 1.196.488l-.269.648c-.327.4-.644.45-.95.149-.136-.53-.225-1.121.023-1.285z"/>
  <path d="M7.734 15.528c-.167 0-.329-.076-.482-.227-.015-.016-.025-.034-.031-.055-.084-.328-.129-.592-.136-.806-.005-.137.005-.25.032-.345.034-.116.091-.203.172-.258.305-.23.556-.342.769-.342.188 0 .343.091.446.265.091.152.146.365.164.65.001.019-.002.036-.008.053l-.268.649c-.004.011-.01.02-.017.028-.101.124-.205.22-.306.283-.111.07-.223.105-.335.105zm-.296-.37c.101.092.2.14.297.14.14 0 .292-.097.451-.288l.25-.607c-.018-.232-.061-.408-.129-.523-.062-.104-.141-.151-.248-.151-.156 0-.375.104-.631.297-.003.002-.004.004-.006.005-.071.044-.208.245.016 1.127z"/>
  <path fill="#F2F2F2" d="M11.244 7.581l6.88-7.352"/>
  <path d="M11.244 7.719c-.034 0-.068-.012-.095-.037-.056-.052-.06-.14-.006-.196L18.022.134c.053-.056.141-.059.196-.007.056.053.059.14.006.196l-6.879 7.352c-.027.03-.064.044-.101.044z"/>
  <path fill="#F2F2F2" d="M9.195 7.675L1.837.139"/>
  <path d="M9.195 7.813c-.036 0-.072-.014-.099-.042L1.738.236C1.684.181 1.685.093 1.74.04c.055-.054.143-.053.196.002l7.358 7.536c.054.054.053.142-.002.196-.027.026-.062.039-.097.039z"/>
</svg>
