<svg xmlns="http://www.w3.org/2000/svg" xml:space="preserve" baseProfile="tiny" overflow="visible" version="1.2" viewBox="0 0 303.7 305.8"><path fill="#00D800" d="M127 87.5c-.5.2-1.1.4-2.4.9 1.4-3.4 2.1-6.5 3.8-8.9 7.9-11.2 16-22.2 24.1-33.3 2.2-3 4.3-5.9 6.4-8.9.9-1.2 1.8-1.8 3.5-1.3 11.1 3 22.3 5.9 34.3 9-1.1 1.3-1.7 2.5-2.7 3.1-10.1 6.1-20.4 12-30.6 18-.1.1-.3.2-.4.3-1.2.7-2.3 1.3-3.5 2-1.2.7-2.4 1.5-3.6 2.2-5 2.9-10 5.8-14.9 8.6-2.2 1.3-4.3 2.6-6.5 3.9-2.4 1.5-5 3-7.5 4.4z"/><path fill="#00F400" d="m122.8 90.2.9-2.1c.4-1.1.8-2.1 1.2-3.2.8-2.1 1.5-4.2 2.7-5.9 5.8-8.2 11.8-16.5 17.6-24.4 2.2-3 4.3-5.9 6.5-8.9.8-1 1.5-2.1 2.3-3.1 1.4-1.9 2.8-3.8 4.2-5.8.9-1.2 2.1-2.3 4.6-1.6 8.3 2.3 16.6 4.4 25.4 6.7 2.9.8 5.9 1.5 8.9 2.3l1.5.4-1 1.2-.9 1.2c-.6.8-1.2 1.6-2 2.1-7.8 4.6-15.7 9.3-23.3 13.8L164 67l-.1.1-.3.2-3.5 2-3.5 2.2-29.2 16.9-4.6 1.8zm38.5-53.3c-.7 0-1.1.4-1.6 1l-4.2 5.7c-.8 1.1-1.5 2.1-2.3 3.2-2.2 3-4.3 5.9-6.5 8.9-5.8 8-11.8 16.2-17.6 24.4-1 1.5-1.7 3.3-2.4 5.4-.1.4-.3.8-.4 1.2l.3-.1 7.5-4.3 6.5-3.8 15.9-9.2 2.6-1.6 3.5-2c.1-.1.3-.2.4-.3l7.2-4.2c7.7-4.5 15.6-9.2 23.3-13.8.5-.3.9-.9 1.4-1.6l.1-.1c-2.5-.6-5-1.3-7.4-1.9-8.8-2.3-17.1-4.4-25.4-6.7-.4-.2-.7-.2-.9-.2z"/><path fill="#00D800" d="M223.6 92.2c-.3.2-.7.3-1 .5.3-.2.7-.3 1-.5z"/><path fill="#00F400" d="m222.124 91.856.983-.494.898 1.786-.983.495z"/><path fill="#00D800" d="M50.1 204.9c-.2.1-.3.2-.5.3.2-.1.3-.2.5-.3z"/><path fill="#00F400" d="m50.1 206.1-1-1.7.5-.3 1 1.7z"/><path fill="#00D800" d="M227.6 89.8c-.2.1-.3.3-.5.4.2-.1.3-.2.5-.4z"/><path fill="#00F400" d="m227.7 91-1.2-1.6.5-.4 1.2 1.6z"/><path fill="#00D800" d="M224.1 91.8c-.2.1-.3.3-.5.4.2-.1.3-.2.5-.4z"/><path fill="#00F400" d="m224.2 93-1.2-1.6.4-.4 1.3 1.6z"/><path fill="#00D800" d="M61.1 196.9c-.2.1-.3.2-.5.3.1-.1.3-.2.5-.3z"/><path fill="#00F400" d="m61.1 198.1-1.1-1.7.5-.4 1.1 1.7z"/><path fill="#00D800" d="M56.5 246.7c-.9-3.6-2-7.1-2.8-10.7-.1-.7.4-1.8 1-2.2 4.8-4.1 9.7-8.1 14.7-12.1 6.2-4.9 12.4-9.8 18.7-14.6 5.4-4.1 11-8 16.5-12 4.5-3.3 9.1-6.6 13.7-9.8 6.3-4.4 12.6-8.9 19-13.2 8.9-6.1 17.9-12.2 26.9-18.2 12.9-7.9 25.7-16 38.7-23.7 11.6-6.9 23.4-13.4 35.1-20.2 6.4-3.7 12.8-7.5 19.2-11.3 4.2-2.4 8.5-4.7 12.7-7.1 7.9-4.5 15.8-9.2 23.8-13.6 1.1-.6 3.8 0 4.5.9 3 4.4 4.5 9.3 4.6 14.8.1 9-3.9 16.2-9.3 22.9-.3.4-.6 1-.9 1.5-1.3 1.5-2.7 3-4 4.5-2.3 2.4-4.6 4.7-6.9 7.1l-5.1 5.4c-.6.4-1.3.7-1.8 1.2-5.3 5.2-10.5 10.4-15.7 15.7-6.1 6.1-12.1 12.3-18.1 18.4-7.8 7.9-15.6 15.7-23.3 23.7-8.2 8.4-16.3 16.8-24.5 25.2-8.1 8.3-16.2 16.5-24.3 24.8-11.6 11.8-23.1 23.7-34.8 35.5-5.2 5.2-10.4 10.3-15.9 15.2-6.8 6.1-14.7 9.9-24.1 10h-2c-1.8-.2-3.7-.4-5.5-.6-1.3-.3-2.7-.7-4-1-2-.8-3.9-1.5-6.3-2.5.6-1.1.9-2.3 1.7-3.2 6.6-7.1 13.3-14.1 20-21.2 7.1-7.6 14.1-15.3 21.3-22.8 4.7-5 9.5-9.9 14.3-14.9 3.8-4 7.4-8 11.1-12 1.3-1.4 2.7-2.7 4-4.1 3.8-4.1 7.6-8.3 11.4-12.5l12-12.6c9.9-10.4 19.9-20.9 29.8-31.3-.2-.2-.3-.4-.5-.6-.7.3-1.5.5-2.2.8-7.5 3.9-15.2 7.6-22.5 11.8-23.8 13.6-45.3 30.3-66.6 47.4-15.4 12.4-30.7 24.8-46 37.2-.8.6-1.7 1.1-2.7 1.7-.9-2.7-1.6-5-2.3-7.4-.7-2.3-1.3-4.7-2-7-.2-1-.4-2.1-.6-3.3z"/><path fill="#00F400" d="M92.1 305.8h-.4l-5.4-.6-4.1-1-7.3-2.9.5-1c.2-.3.3-.7.5-1 .4-.8.7-1.7 1.4-2.4 3.7-4 7.5-8 11.2-11.9 2.9-3.1 5.8-6.2 8.8-9.3 3.3-3.5 6.6-7.1 9.9-10.6 3.8-4.1 7.6-8.2 11.4-12.2 2.6-2.7 5.2-5.5 7.8-8.1 2.2-2.2 4.4-4.5 6.5-6.8 2.6-2.7 5.2-5.6 7.7-8.3 1.1-1.2 2.3-2.5 3.4-3.7.4-.5.9-.9 1.3-1.3.9-.9 1.8-1.8 2.7-2.8 2.7-3 5.5-6 8.2-8.9l3.2-3.5 12-12.6 27.9-29.3c-2.1 1.1-4.1 2.1-6.2 3.2-5.2 2.7-10.6 5.4-15.8 8.4-24.5 14-47.1 31.8-66.5 47.3-8.8 7.1-17.5 14.1-26.3 21.2-6.6 5.3-13.1 10.6-19.7 15.9-.6.5-1.2.8-1.9 1.2-.3.2-.6.4-1 .6l-1.1.7-2.7-8.6-2-7-.7-3.5c-.2-.9-.5-1.8-.7-2.7-.7-2.6-1.4-5.3-2-8-.3-1.2.6-2.6 1.3-3.2 5.7-4.8 10.4-8.7 14.7-12.1 7.5-5.9 13.3-10.4 18.7-14.6 3.9-3 8-5.9 11.9-8.7 1.5-1.1 3.1-2.2 4.6-3.3l2.9-2.1c3.5-2.5 7.1-5.2 10.7-7.7 5.7-4 12.3-8.7 19-13.2 6.3-4.3 12.6-8.6 18.9-12.8 2.7-1.8 5.4-3.6 8-5.4 3.9-2.4 7.9-4.8 11.8-7.3 8.8-5.4 17.9-11.1 27-16.5 7.4-4.4 14.9-8.7 22.2-12.8 4.3-2.4 8.6-4.9 12.9-7.3 4.4-2.5 8.9-5.2 13.2-7.7 2-1.2 4-2.4 6-3.5 1.3-.7 2.7-1.5 4-2.2 2.9-1.6 5.8-3.2 8.7-4.9 2.5-1.4 4.9-2.8 7.3-4.2 5.4-3.1 11-6.4 16.5-9.4 1.5-.8 4.8-.1 5.8 1.2 3.1 4.5 4.7 9.7 4.7 15.3.1 10.1-5 17.9-9.5 23.5-.2.2-.3.5-.5.8-.1.2-.2.3-.3.5l-.1.2-4 4.5-6.9 7.1-5.3 5.6c-.2.1-.4.3-.6.4-.4.2-.8.4-1 .7-6.3 6.3-11.2 11.1-15.7 15.7-3.6 3.6-7.1 7.2-10.7 10.8-2.5 2.5-5 5-7.4 7.6-2.8 2.9-5.6 5.7-8.5 8.6-5 5-9.9 10-14.9 15.1-4.4 4.5-8.8 9-13.2 13.6-3.8 3.9-7.5 7.8-11.3 11.7l-15.1 15.4c-3.1 3.1-6.1 6.2-9.2 9.4-3.7 3.7-7.3 7.5-11 11.2-7.8 8-15.8 16.2-23.8 24.2-5.7 5.8-10.9 10.8-15.9 15.3-7.6 6.8-15.7 10.2-24.8 10.3h-1.7zm0-2H94c8.5-.1 16.2-3.3 23.5-9.8 5-4.5 10.2-9.4 15.8-15.2 8-8 16-16.3 23.8-24.2 3.7-3.7 7.3-7.5 11-11.2 3.1-3.1 6.1-6.2 9.2-9.4l15.1-15.4c3.8-3.9 7.5-7.8 11.3-11.7 4.4-4.5 8.8-9.1 13.2-13.6 4.9-5.1 9.9-10.1 14.9-15.1 2.8-2.9 5.6-5.7 8.5-8.6 2.5-2.5 5-5 7.4-7.6 3.6-3.6 7.1-7.2 10.7-10.8 4.5-4.6 9.4-9.4 15.7-15.7.4-.4 1-.7 1.4-1 .1-.1.3-.2.4-.3l5-5.4 6.9-7.1 3.9-4.4c.1-.1.1-.2.2-.4.2-.4.4-.8.7-1.1 4.5-5.7 9.1-12.8 9-22.3 0-5.3-1.5-10-4.4-14.2-.3-.5-2.5-1-3.2-.6-5.5 3-11.1 6.2-16.5 9.3-2.4 1.4-4.9 2.8-7.3 4.2-2.9 1.7-5.9 3.3-8.7 4.9-1.3.7-2.6 1.5-4 2.2-2 1.2-4 2.3-6 3.5-4.3 2.6-8.8 5.2-13.2 7.8-4.3 2.5-8.6 4.9-12.9 7.3-7.3 4.1-14.9 8.4-22.2 12.8-9 5.4-18.1 11-26.9 16.5l-11.7 7.2c-2.6 1.8-5.3 3.6-8 5.4-6.3 4.3-12.6 8.5-18.9 12.8-6.6 4.5-13.3 9.2-19 13.2-3.6 2.5-7.2 5.2-10.7 7.7l-2.9 2.1c-1.5 1.1-3.1 2.2-4.6 3.3-3.9 2.8-8 5.7-11.9 8.7-5.5 4.1-11.2 8.6-18.7 14.5-4.3 3.4-8.9 7.2-14.7 12.1-.4.3-.7 1-.7 1.3.6 2.6 1.3 5.3 2 7.9.2.9.5 1.8.7 2.7v.1l.6 3.5 1.9 6.9 1.9 6.1c.6-.3 1.1-.6 1.5-1 6.6-5.3 13.1-10.6 19.7-15.9 8.8-7.1 17.5-14.2 26.3-21.2 19.4-15.6 42.1-33.4 66.7-47.5 5.2-3 10.6-5.7 15.9-8.4 2.2-1.1 4.4-2.3 6.7-3.4.5-.3 1.1-.5 1.6-.6.2-.1.4-.2.7-.2l.7-.3 1.4 1.9-42.4 44.5-3.2 3.5c-2.7 3-5.5 6-8.2 9-.9 1-1.8 1.9-2.8 2.8-.4.4-.9.8-1.3 1.3-1.1 1.2-2.2 2.4-3.4 3.7-2.5 2.7-5.1 5.6-7.7 8.3-2.2 2.3-4.3 4.5-6.5 6.8-2.5 2.6-5.2 5.4-7.7 8.1-3.8 4.1-7.6 8.2-11.4 12.2-3.3 3.5-6.6 7.1-9.9 10.6-2.9 3.1-5.8 6.2-8.8 9.3-3.7 4-7.5 7.9-11.2 11.9-.4.4-.7 1.1-1 1.8 0 0 0 .1-.1.1l5.2 2 3.9 1 5.8.8z"/><path fill="#00D800" d="M26.6 136.2c-.5-2.6.3-4.8 1.8-6.8 8.9-12.2 17.9-24.4 26.8-36.7 6.8-9.3 13.5-18.7 20.4-28 8.1-11 16.3-21.8 24.3-32.8 2-2.7 3.7-5.6 5.7-8.3.5-.7 1.5-1.4 2.3-1.4 10.6-.1 20.3 3 29.9 8.1-5.5 8.9-10.9 17.6-16.2 26.3-.8 1.3-1.7 2.7-2.5 4l-2.1 3c-7 11.2-14 22.3-21 33.4-4.9 7.8-10 15.4-14.6 23.3-5 8.7-9.6 17.6-14.4 26.5-.8 1.5-1.7 3.1-2.5 4.6.2.2.4.3.5.5 1.6-1 3.1-2.1 4.7-3.1l7.5-4.8c7.5-4.9 15-9.7 22.6-14.6 6.2-4 12.6-7.9 18.8-11.9.3-.2.4-.5.6-.8.5-.2.9-.3 1.4-.5 9-5.4 18.1-10.8 27.1-16.3 11.7-7.1 23.3-14.2 35-21.3 11.1-6.6 22.1-13.2 33.2-19.8 2.9-1.8 5.8-3.7 8.8-5.3 1-.5 2.4-.8 3.4-.5 10.8 2.9 21.6 5.9 32.4 8.9 2.3.6 4.7 1.1 7 1.8 1 .3 1.9 1.1 2.9 1.7-11.4 6.5-22.3 12.8-33.3 19.1-1.5.9-3.1 1.8-4.6 2.6-1.5.8-3 1.7-4.5 2.5-.2 0-.3.1-.5.1-.2.1-.3.3-.5.4-1 .5-2 1.1-3 1.6-.2.1-.3.3-.5.4-.3.2-.7.3-1 .5-.2 0-.5 0-.7.1-4.4 2.6-8.8 5.3-13.3 7.9-7.4 4.3-14.9 8.4-22.4 12.6-8.7 4.9-17.3 9.8-26 14.9-8.4 4.9-17.1 9.5-25.1 14.9-14.9 10.2-29.5 20.8-44.1 31.4-10.1 7.3-20 14.9-30 22.3-.2.1-.3.2-.5.3-3.5 2.6-7 5.1-10.5 7.7-.2.1-.3.2-.5.3-1.1.8-2.2 1.6-3.3 2.3-.2-.4-.5-.7-.6-1.1-3-11.4-6-22.9-9.1-34.3-2.1-7.8-4.3-15.6-6.5-23.5-.5-2.2-1.1-4.3-1.6-6.5-.4-1.7-1-3.7-1.7-5.7z"/><path fill="#00F400" d="m45.9 209.1-.5-1c-.1-.1-.1-.2-.2-.3-.2-.3-.4-.6-.5-1-1.2-4.4-2.3-8.8-3.5-13.2-1.9-7-3.7-14.1-5.6-21.1-1.5-5.4-3-10.9-4.5-16.2-.7-2.4-1.3-4.8-2-7.2l-1.6-6.5-1.9-6.1c-.5-2.6.1-5.1 2-7.6 8.9-12.2 17.9-24.4 26.8-36.7 2.6-3.5 5.1-7 7.6-10.5C66.2 76 70.5 70 74.7 64.2c4.3-5.9 8.7-11.7 13-17.6 3.8-5.1 7.5-10.1 11.3-15.2 1-1.3 1.9-2.7 2.8-4.1.9-1.4 1.9-2.8 2.9-4.2.7-.9 1.9-1.8 3.1-1.8 9.9-.1 19.6 2.5 30.4 8.2l.9.5L120 61.2c-.2.4-.5.7-.7 1-.5.7-.9 1.3-1.4 2-7 11.1-14.1 22.2-21.1 33.3l-4.2 6.6c-3.5 5.4-7.1 11.1-10.4 16.7-3.5 6-6.8 12.2-10 18.3-1.4 2.7-2.9 5.5-4.4 8.2-.4.8-.9 1.6-1.3 2.3l16.8-10.9 15.9-10.2c3.8-2.4 7.7-4.9 11.5-7.3 2.4-1.5 4.9-3.1 7.3-4.6 0 0 .1-.1.1-.2.1-.1.2-.2.2-.3l.2-.2.3-.1c.2-.1.3-.1.5-.2.3-.1.5-.2.7-.3l.6-.4c8.8-5.3 17.7-10.6 26.5-15.9 8.2-4.9 16.3-9.9 24.4-14.8l10.6-6.4 9.4-5.6c8-4.7 15.9-9.5 23.9-14.2l3-1.8c1.9-1.2 3.9-2.4 5.9-3.5 1.1-.6 2.8-1 4.2-.6 7.5 2 15.1 4.1 22.4 6.1 3.3.9 6.7 1.8 10 2.8 1 .3 1.9.5 2.9.7 1.4.3 2.8.7 4.2 1.1.8.3 1.6.7 2.2 1.2l.9.6 1.5.9-44.1 25.3-.4.2-.4.3-3.2 1.8v.1l-1.5.7H222.3c-1.6.9-3.1 1.9-4.7 2.8-2.8 1.7-5.6 3.4-8.5 5-4.2 2.4-8.4 4.8-12.7 7.2-3.2 1.8-6.5 3.6-9.7 5.5l-1.3.7c-8.1 4.6-16.5 9.4-24.7 14.1-2.2 1.3-4.5 2.6-6.7 3.8-6.1 3.5-12.4 7.1-18.3 11.1-13.7 9.3-27.3 19.2-40.4 28.7l-3.7 2.7c-7 5.1-14 10.3-20.8 15.4-3.1 2.3-6.1 4.6-9.2 6.9l-.6.4-10.4 7.7-.6.3-4.1 2.9zm-18.3-73.2 1.8 6 1.6 6.6c.7 2.4 1.3 4.8 2 7.2 1.5 5.3 3 10.8 4.5 16.2 1.9 7 3.8 14.1 5.6 21.1 1.2 4.4 2.3 8.7 3.5 13.1l2.9-2 10.9-8c3-2.3 6.1-4.6 9.2-6.9 6.8-5.1 13.8-10.4 20.8-15.4l3.7-2.7c13.2-9.6 26.8-19.4 40.5-28.8 5.9-4.1 12.3-7.7 18.5-11.2 2.2-1.3 4.5-2.5 6.7-3.8 8.2-4.8 16.6-9.5 24.7-14.1l1.3-.7c3.2-1.8 6.5-3.7 9.7-5.5 4.2-2.4 8.4-4.7 12.6-7.1 2.8-1.6 5.7-3.3 8.5-5 1.6-1 3.2-1.9 4.8-2.9.4-.2.7-.2 1-.2l.9-.5.4-.3 3.1-1.7.4-.3.6-.2 4.4-2.5 9.3-5.4 27.1-15.6c-.4-.3-.9-.5-1.3-.7-1.3-.4-2.7-.7-4.1-1.1-1-.2-2-.5-2.9-.7-3.3-.9-6.7-1.8-10-2.8-7.3-2-14.9-4.1-22.4-6.1-.7-.2-1.9 0-2.7.4-2 1.1-3.9 2.3-5.8 3.4l-3 1.8c-8 4.8-15.9 9.5-23.9 14.2l-9.3 5.6-10.6 6.4c-8.1 5-16.3 9.9-24.4 14.8-8.8 5.3-17.6 10.6-26.5 16l-.6.4c-.4.2-.8.4-1.1.5h-.1c-.2.2-.4.5-.7.8-2.4 1.5-4.9 3.1-7.3 4.6-3.8 2.4-7.7 4.8-11.5 7.3-5.3 3.4-10.6 6.8-15.8 10.2L65.1 153l-1.7-1.5 1.2-2.2c.6-1 1.2-2.1 1.7-3.1 1.5-2.7 2.9-5.4 4.4-8.2 3.2-6.1 6.5-12.3 10-18.3 3.3-5.7 6.9-11.4 10.5-16.8l4.2-6.6c7-11.1 14.1-22.2 21.1-33.3.5-.7.9-1.4 1.4-2.1.2-.3.4-.6.7-.9l2.5-4 15.7-25.4c-10.1-5.2-19.2-7.6-28.5-7.5-.3 0-1.1.5-1.5 1-1 1.3-1.9 2.7-2.8 4.1-.9 1.4-1.9 2.8-2.9 4.2-3.8 5.1-7.5 10.1-11.3 15.2-4.4 5.8-8.7 11.7-13 17.6-4.3 5.8-8.6 11.7-12.7 17.5-2.5 3.5-5.1 7-7.6 10.5-8.9 12.2-17.8 24.4-26.8 36.7-2 2.1-2.5 4-2.1 6z"/><path fill="#00D800" d="M1 27.2c.9-5.2 1.3-10.6 2.9-15.6 2-6.4 8.7-10.1 15.4-10.5C28.8.5 37.8 2.3 46.8 5 59.4 8.8 72.1 12.2 85 15.9c-6.7 7.5-13.3 14.9-19.9 22.3-1.2 1.3-2.3 2.6-3.5 4-.4.3-.8.7-1.1 1-13 14.2-25.9 28.4-38.9 42.6-2 2.2-4.1 4.4-6.5 7C11.9 81.2 8.4 70.2 5.8 59 3.7 50.2 2.6 41.1 1 32.2v-5z"/><path fill="#00F400" d="m14.6 94.7-.4-1.7c-1-3.5-2-6.9-3-10.4-2.3-8-4.5-15.6-6.4-23.4-1.5-6.1-2.5-12.5-3.4-18.6C1 37.8.5 35.1 0 32.3V27c.3-1.6.5-3.2.7-4.8.5-3.6 1-7.4 2.2-10.9C4.9 5 11.4.6 19.3.1c8.4-.5 17 .7 27.8 3.9 8.8 2.6 17.9 5.2 26.6 7.6 3.8 1.1 7.7 2.1 11.5 3.2l1.5.4-24.4 27.6-.4.4c-.2.2-.5.4-.7.6L22.3 86.4c-1.4 1.5-2.8 3-4.3 4.6l-3.4 3.7zM2 32.1c.5 2.7.9 5.5 1.3 8.2 1 6.1 2 12.4 3.4 18.5 1.8 7.8 4 15.3 6.3 23.3.8 2.9 1.7 5.7 2.5 8.7l1-1.1c1.5-1.6 2.9-3.1 4.3-4.6l38.9-42.6.8-.8.3-.3 3.5-3.9 18.8-21.1c-3.3-.9-6.7-1.9-10-2.8-8.8-2.4-17.8-5-26.6-7.6C36 2.8 27.6 1.6 19.4 2.1c-5.8.4-12.6 3.5-14.6 9.8-1.1 3.4-1.6 7-2.1 10.6-.2 1.6-.4 3.2-.7 4.8v4.8z"/></svg>