<svg xmlns="http://www.w3.org/2000/svg" xml:space="preserve" viewBox="408.538 40.197 681.745 673.33"><path fill="#FFF" d="M1089.747 258.656h-.054L980.571 149.427l109.122-109.23h.054zm.536 227.409-.054.053-109.122-109.282 109.122-109.23.054.054zm0 227.462h-.054L981.107 604.299l109.122-109.23h.054zM977.141 599.796h-.053V381.392l.053-.054 109.175 109.229zm0-227.409-.053-.053V153.929h.053l109.175 109.229zm-.053 227.409L867.966 490.567l109.122-109.175zm0-227.462L867.966 263.158l109.122-109.229zm-4.181 4.233.107.108-109.175 109.229-109.176-109.229.054-.108z"/><path fill="#FFF" d="m754.717 376.729-.054-.054 109.176-109.23 109.175 109.23-.107.054zm-4.342 223.067V381.338l109.176 109.229zm0 0L641.253 490.567l109.122-109.229zm-4.717-223.229.054.108-109.176 109.229-109.122-109.229.054-.108z"/><path fill="#FFF" d="m527.468 376.729-.054-.054 109.122-109.23 109.176 109.23-.054.054zm-5.252 223.067V381.392l109.122 109.175zm0-227.462V153.929l109.122 109.229zm0 227.462h-.054L413.04 490.567l109.122-109.229.054.054zm0-227.462-.054.053L413.04 263.158l109.122-109.229h.054zM408.538 713.527V495.069l109.176 109.23zm0-227.409V267.606l109.176 109.23zm0-227.462V40.197l109.176 109.23z"/></svg>