<svg xmlns="http://www.w3.org/2000/svg" viewBox="0 96.005 595.279 649.881"><path fill="#FFF" d="M589.9879372 585.27244919c6.71448336-18.19637312 7.04038859-34.766354.97458198-49.7141209-5.63231087-13.86350539-16.4623923-25.56057693-32.49233344-35.0912146-14.94672408-8.66469088-33.03341969-14.94672233-54.26217596-18.84609437-19.27854774-3.46587635-40.29003386-4.98258896-63.03550292-4.54909328-21.87743302.64972125-43.10514473 3.03238067-63.68417968 7.14797826-19.71204347 4.1155976-37.04142725 9.31441212-51.98710676 15.595399-14.72945393 6.28203146-26.21030126 13.1051491-34.44149741 20.47039748-8.23119615 7.7976995-12.56301981 15.81266913-12.99756012 24.04386432-.64972132 9.7479078 4.33286823 20.25312735 14.94672408 31.51774777 9.74790895 10.39762905 23.39414582 20.57798797 40.94079975 30.54212133 17.54560936 9.96517793 36.93279218 18.52018918 58.16154845 25.669212 22.7444245 7.58147395 45.16398833 12.45542785 67.2586915 14.62186171 14.2959582 1.29944249 27.61837898 1.51566805 39.9651732.64972124 13.43105586-1.29944249 25.8854406-4.11559759 37.36628792-8.44846531 12.34679423-4.76427427 22.85305958-11.37221092 31.51775146-19.81963166 9.74581982-9.31232299 17.00243399-20.5769434 21.76879795-33.789683m-135.81787022-51.0125188c7.36524924 3.89832747 12.78028996 8.6636463 16.24616672 14.29595651 3.46587675 6.28203146 4.22423315 13.43105428 2.27402462 21.44497935-1.51566822 5.6323102-4.006963 10.5062641-7.47283976 14.62081713-3.2486066 3.68314648-7.5825194 6.60689208-12.99756011 8.77332594-4.54909382 1.94916374-10.07276961 3.35724129-16.57102738 4.2231881-6.28098763.64972124-12.56301982.75731173-18.84609658.32486061-11.04735158-.6507658-23.17792023-2.8161551-36.39066136-6.49930158-11.48084733-3.46587635-22.52819892-7.7976995-33.14309934-12.99651402-9.74686437-4.76531884-17.76183494-9.7479078-24.04386713-14.9477669-6.06580661-5.41504008-8.98955255-10.18035892-8.7722824-14.29595652.43245117-3.46587635 2.92374594-6.82311763 7.47283976-10.07276842 4.5490938-3.03238067 10.831126-5.7399007 18.84609657-8.12256013 8.01497057-2.59888498 16.89588804-4.54909328 26.64379699-5.84853577 11.04735158-1.29839792 21.55257236-1.94916373 31.51775146-1.94916373 11.04735159.21727013 21.01148612 1.08321693 29.89240359 2.59992955 9.53168336 1.9502083 17.98014967 4.7663634 25.34435435 8.44950988zm-25.9930311-340.84355598c-.86699148-23.39414308-6.71552793-42.88995869-17.54560937-58.4853577-11.48084732-17.11315618-28.37673536-28.80918315-50.68870869-35.09225918-4.98154498-1.51566804-10.2889952-2.59888497-15.92130606-3.24860622-4.98258955-.64972124-10.0727696-.7583563-15.27158474-.32486062-4.7653194 0-9.5306388.54213075-14.2959582 1.62534768-4.11664264.8659468-8.66469188 2.27402435-13.64623686 4.22318809-16.02889657 6.28203145-30.54316948 17.32938175-43.53968503 33.14205088-12.12952408 14.29700108-22.52715435 32.05883395-31.1928908 53.28758773-7.58147484 17.979103-13.64623688 37.69114416-18.19533069 59.1361235-4.33182366 20.14553686-7.25661417 40.61488976-8.77332696 61.41014786-1.29944265 18.8450498-1.40703315 36.93278785-.3238161 54.2621696 1.29944265 17.11211162 3.68210234 32.6009647 7.14693453 46.46342553 6.93279808 28.37568747 17.54560936 45.81370429 31.84261212 52.31300587 1.29944264.64972124 2.59992985 1.191852 3.8993725 1.6243031l8.44742173 1.2994425c1.08321706 0 2.70752036-.10863507 4.87395448-.32381606 9.09714305-.86699137 19.38718281-4.65668377 30.86803014-11.37325548 11.04735158-6.71448257 22.63578942-15.9213042 34.7653135-27.61837573 12.99756011-12.56301835 25.56057993-27.18488005 37.69114857-43.86454056 12.78028997-17.32938174 24.15250221-35.63334536 34.11663674-54.91189084 11.69707291-22.74442183 20.68767003-45.05639254 26.96865765-66.933823 6.50034691-24.0449089 9.42409286-46.24824454 8.77437154-66.61000695m-123.7948921 52.63682192c2.16538956.43349568 4.006963.97458186 5.5236758 1.6243031 17.54560937 6.0658059 26.53516192 20.0369018 26.96761308 41.91537682.21727016 17.979103-5.30640564 38.66572603-16.56998281 62.0598691-9.31441321 19.49477105-20.47039987 36.60792724-33.46691542 51.33737944-12.13056865 13.8635054-22.31197333 21.22770921-30.54316948 22.09470059l-1.62534787.32381605-2.92374595-.32381605-1.62534787-.65076582c-6.06476204-2.81511053-10.28899519-12.02193216-12.67165489-27.61837573-2.3826597-15.81266913-2.27402462-33.90040719.32486066-54.2621696 2.81615544-22.74442183 8.12256108-42.67373313 15.92130606-59.78584475 9.31441321-20.3617624 20.79526054-32.38369457 34.44254198-36.06684105 2.3826597-.64972124 4.11559807-.97458186 5.19777056-.97458186 1.73293838-.21727013 3.46587676-.32486062 5.19881514-.32486062 1.73293837.00208913 3.68210234.21935926 5.84958102.65181038zM12.92676935 313.96264576c-2.59992985 3.46587635-4.7653194 7.25661332-6.49930234 11.37221091-1.94916396 4.98258897-3.35724168 10.07276843-4.22318858 15.27158295-4.54909382 21.22770922-2.05779904 41.80674176 7.47388432 61.73500848 7.79770042 16.46239038 20.3617648 31.95124346 37.690104 46.46342553 15.38021982 12.78028847 32.70855903 23.17791752 51.98710678 31.19288715 19.49581789 8.01496963 36.500341 11.69707154 51.01252478 11.0473503 2.81615544 0 5.84853646-.32486063 9.09818763-.97458188 3.2486066-.6507658 5.95612696-1.51671261 8.12256107-2.59992954 2.16643412-1.08321693 4.22318859-2.49129448 6.17235255-4.2231881 1.95020853-1.73293817 3.46587676-3.6821019 4.54909381-5.84853576 5.19881514-9.96517793 3.79073742-25.34435138-4.22318858-46.13960948-8.23119615-20.14449228-20.68662546-40.83111531-37.36628792-62.0598691-17.32938378-22.09470058-35.41607938-39.5327174-54.26217595-52.31300586-20.36280937-13.64623528-37.5825135-18.7374593-51.66329068-15.27158295-3.46587676.86699137-6.71448336 2.38265941-9.74686438 4.54909327-3.03133645 1.9502083-5.7388568 4.54909328-8.1215165 7.79874408m48.08773427 64.65979864c1.08321706-1.9502083 2.16747868-3.46587635 3.24965117-4.54909328 1.08321706-1.08321693 2.3826597-2.0577988 3.89832792-2.92479016 1.73293838-.64972125 3.2486066-1.08321693 4.54909382-1.2994425 6.9317535-1.29944248 15.70508047 1.73293818 26.31893633 9.097142 9.53063879 6.28203145 19.06127758 15.16294789 28.59296095 26.64379387 8.66469188 10.39762904 15.5964454 20.57798797 20.79526053 30.54212133 4.98258955 10.18035892 6.49825777 17.32938175 4.54909381 21.44497934-.43245117.8659468-.97458198 1.51566805-1.6243033 1.94916373-.65076589.8659468-1.40807772 1.40807756-2.27402462 1.62534768-.43349574.43245112-1.29944264.75731174-2.59992985.97458187l-3.57451183.64972125c-6.93175352.43349568-15.92130607-1.51671262-26.96865765-5.84853577-10.831126-4.33182316-21.01148612-10.07276843-30.54316948-17.22074669-10.18036012-7.58147394-17.76183495-15.81266913-22.7444245-24.69463013-5.63231087-10.18035892-6.93175351-20.36176241-3.8993725-30.54212133.65181046-2.1653893 1.4091223-4.11455303 2.2750692-5.8474912zm161.48708523 199.17612134h-1.29944264c-6.71448336-.21727013-12.88892504 2.0577988-18.52019134 6.82311763-5.19777057 4.54909328-9.6382293 11.0473503-13.32137621 19.49477105-3.2486066 7.5825185-5.5236758 16.13752975-6.82311844 25.669212-1.29944264 9.53168224-1.5167128 19.17095498-.65076589 28.91781822 1.73293838 20.57903254 7.79770042 38.01704935 18.19637525 52.31300586 12.12952408 16.46239038 29.02541212 27.29351512 50.68766413 32.49232964h.64972132l1.95020853.65076581h.97458198c23.6103714 4.54909328 39.42408696.10863507 47.43801296-13.32241922 3.68210234-6.28203145 5.52367579-14.29700108 5.52367579-24.04386432-.21727015-9.31441211-1.94916396-19.49477104-5.19777057-30.5431659-3.24965117-11.26357585-7.79874498-22.5271517-13.64728143-33.79177212-5.84853646-11.48084598-12.45542931-21.87743046-19.82067856-31.19288715-7.79770041-9.74686323-15.59540083-17.5456073-23.39310125-23.39414307-8.23328529-6.06476133-15.81476012-9.42304719-22.74651363-10.07276843m-9.09818762 40.29002914c3.46587675-9.53168225 7.90633549-14.07973096 13.32242077-13.64623527h.3238161c5.41608528.64972124 11.80570798 6.28203145 19.17095723 16.89588606 7.36420468 10.6138546 12.88892504 21.77088453 16.56998281 33.46795607 4.11664265 12.78028847 4.98258955 22.96064739 2.59992985 30.54212133-2.81511086 8.01496963-9.74686438 11.26462042-20.79526053 9.7479078h-.32486066l-.3238161-.32486062h-.97458197c-10.831126-2.16643386-19.17095724-7.7976995-25.0194937-16.89588606-4.98258954-8.23119519-7.7977004-18.19637312-8.4484663-29.89240009-.64972132-11.48189054.6507659-21.4460239 3.8993725-29.89448922zm-70.50729812-69.85756861c-1.94916396-1.51671261-4.33182366-2.8161551-7.1479791-3.89937203-2.81615543-1.08321693-5.73990137-1.84157324-8.77228239-2.27402436-2.81615543-.65076581-5.84853645-1.08321693-9.09818762-1.29944249-9.31441321-.21727013-18.41260084 1.191852-27.29247375 4.2231881-8.66469189 2.8161551-15.70508047 7.04038775-21.12012119 12.6716534-5.41504072 6.0658059-8.01497057 12.78028846-7.79770042 20.14553685.21727016 8.01496963 4.006963 16.6796605 11.37221225 25.99407262 1.94916396 2.38265942 4.33182366 4.9815444 7.1479791 7.7976995 2.16643411 2.16643386 4.65772889 4.1155976 7.47283975 5.84853577 2.16747869 1.2994425 4.55013838 2.49129449 7.1479791 3.57451142 3.03342559 1.08321693 5.41608528 1.6243031 7.1479791 1.6243031 7.79770041 1.08321694 15.38021981-.54108617 22.74546906-4.87290933 7.14693453-4.11664216 13.3213762-9.96517793 18.52019134-17.5456073 5.41504072-7.79874407 8.7722824-15.8137137 10.0727696-24.0449089 1.29944265-9.09818655-.32486065-16.56998086-4.87395446-22.41851663-1.73398295-2.16643386-3.5755564-4.00905167-5.52472037-5.52471972m-6.49930234 13.32137465c1.95020853 2.59992955 2.3826597 6.0658059 1.29944264 10.39762905-.8659469 4.11664216-2.81511086 8.33983025-5.84853645 12.6716534-3.03238102 4.11664217-6.49825778 7.36524839-10.39763027 9.7479078-4.11559808 2.59888499-8.12256108 3.68210192-12.02193357 3.24860623l-3.57451183-.65076581c-1.29944264-.43245112-2.49129477-1.08321693-3.57451183-1.94916373-.8659469-.43245112-2.05779904-1.2994425-3.57451183-2.59992955-.8659469-.8659468-1.94916397-2.0577988-3.2486066-3.57346685-3.8993725-4.98258896-5.4160853-9.53168224-4.54909382-13.64727984.43245117-3.68314647 2.70752036-6.9317527 6.82311844-9.74686323 3.68210234-2.59992955 8.12256107-4.54909328 13.3213762-5.84853577 5.19881514-1.29944249 10.18140469-1.84157324 14.94672409-1.62534768l3.57451183.32486062 2.9247905.64972125c.86594691.43349568 1.62430331.86699137 2.27402463 1.29944249l1.62534787 1.30153162z"/><path fill="#FFF" d="M337.19829332 220.7098895c30.32589933 0 59.78585176 3.68210191 88.3788127 11.0473503 2.16643412-13.64727984 3.03238103-26.4275683 2.59992986-38.3408654-.86699148-23.39414308-6.71552793-42.88995869-17.54560937-58.4853577-11.48084732-17.11315618-28.37673536-28.80918315-50.68870869-35.09225918-4.98154498-1.51566804-10.2889952-2.59888497-15.92130606-3.24860622-4.98258955-.64972124-10.0727696-.7583563-15.27158474-.32486062-4.7653194 0-9.5306388.54213075-14.2959582 1.62534768-4.11664264.8659468-8.66469188 2.27402435-13.64623686 4.22318809-16.02889657 6.28203145-30.54316948 17.32938175-43.53968503 33.14205088-12.12952408 14.29700108-22.52715435 32.05883395-31.1928908 53.28758773-7.1479791 17.32938175-12.99756012 35.84957092-17.54560937 55.56161209 40.94079975-15.59748814 83.8297189-23.39518764 128.66884656-23.39518764zM2.20427843 340.60643962C-2.3448154 361.83414884.14647939 382.41318138 9.67816275 402.3414481c3.2486066 6.9317527 7.2555696 13.53864478 12.02193357 19.82067623 15.16294966-37.25764847 37.5825135-70.83215047 67.2586915-100.72559513-1.73293837-1.29944249-3.89832792-2.8161551-6.49825777-4.54909328-20.36280936-13.64623527-37.5825135-18.7374593-51.66329067-15.27158295-3.46587676.86699137-6.71448336 2.38265942-9.74686438 4.54909328-3.03342559 1.9502083-5.73990138 4.54909328-8.12256108 7.79874407-2.59992985 3.46587635-4.7653194 7.25661332-6.49930234 11.37221092-1.95020853 4.98049983-3.35828625 10.07172386-4.22423315 15.27053838z"/></svg>
