<svg xmlns="http://www.w3.org/2000/svg" viewBox="297.333 73.333 533.332 533.332"><g transform="scale(3.4682)"><linearGradient id="a" x1="89.1175" x2="71.8173" y1="233.5573" y2="193.1927" gradientTransform="matrix(7.7071 0 0 -7.7071 -501.6811 1845.5039)" gradientUnits="userSpaceOnUse"><stop offset="0" stop-color="#37aee2"/><stop offset="1" stop-color="#1e96c8"/></linearGradient><circle cx="162.62" cy="98.033" r="76.889" fill="url(#a)"/><path fill="#FFF" d="m117.731 97.367 51.778-21.333c5.111-2.222 22.444-9.333 22.444-9.333s8-3.111 7.333 4.444c-.222 3.111-2 14-3.778 25.778l-5.556 34.889s-.444 5.111-4.222 6c-3.778.889-10-3.111-11.111-4-.889-.667-16.667-10.667-22.444-15.556-1.555-1.333-3.333-4 .222-7.111 8-7.333 17.556-16.444 23.333-22.222 2.667-2.667 5.333-8.889-5.778-1.333L138.62 108.7s-3.555 2.222-10.222.222-14.445-4.667-14.445-4.667-5.333-3.333 3.778-6.888z"/></g></svg>
