<svg xmlns="http://www.w3.org/2000/svg" width="120" height="42" version="1.0"><path d="m443.29.449 114.063.203c1.594 0 3.018-.237 3.018 3.18l-.14 37.567h-119.82V3.692c0-1.684.163-3.243 2.879-3.243z" style="fill:#aab2ab" transform="matrix(.99377 0 0 .99367 -437.12 0)"/><path d="M117.753 0H2.248A2.25 2.25 0 0 0 0 2.247v39.246c0 .28.227.507.508.507h118.984c.28 0 .508-.227.508-.507V2.247A2.25 2.25 0 0 0 117.753 0zM2.248 1.015h115.505c.68 0 1.232.553 1.232 1.232V29.46H36.429c-3.026 5.47-8.857 9.185-15.547 9.185-6.693 0-12.521-3.71-15.545-9.185H1.015V2.247c0-.68.553-1.232 1.233-1.232z"/><path d="M486.267-141.53c.006 8.68-7.028 15.72-15.708 15.727-8.68.005-15.721-7.028-15.727-15.708v-.02c-.006-8.68 7.028-15.722 15.708-15.727 8.681-.005 15.723 7.028 15.727 15.709v.018z" style="fill:#fff" transform="matrix(.86749 0 0 .8674 -387.307 142.308)"/><path d="M31.973 8.44c3.023 3.024 4.535 6.726 4.535 11.105 0 4.38-1.486 8.042-4.458 10.988-3.154 3.102-6.88 4.653-11.182 4.653-4.249 0-7.911-1.538-10.986-4.615-3.076-3.075-4.613-6.75-4.613-11.026 0-4.275 1.537-7.977 4.613-11.105 2.997-3.024 6.66-4.536 10.986-4.536 4.38 0 8.08 1.512 11.105 4.536zm-20.056 2.034c-2.556 2.581-3.834 5.606-3.834 9.075 0 3.468 1.266 6.466 3.795 8.996 2.53 2.529 5.542 3.794 9.037 3.794 3.495 0 6.532-1.278 9.115-3.833 2.451-2.373 3.677-5.358 3.677-8.957 0-3.572-1.246-6.604-3.738-9.095-2.49-2.49-5.508-3.735-9.054-3.735-3.546 0-6.547 1.252-8.998 3.755zm6.727 7.549c-.39-.852-.974-1.277-1.755-1.277-1.378 0-2.067.928-2.067 2.783 0 1.856.69 2.783 2.067 2.783.91 0 1.56-.452 1.95-1.357l1.912 1.017c-.911 1.618-2.278 2.428-4.1 2.428-1.405 0-2.53-.43-3.376-1.292-.846-.862-1.27-2.05-1.27-3.563 0-1.488.438-2.67 1.309-3.544.872-.875 1.958-1.311 3.26-1.311 1.926 0 3.304.758 4.139 2.274l-2.07 1.059zm8.99 0c-.39-.852-.964-1.277-1.72-1.277-1.405 0-2.11.928-2.11 2.783 0 1.856.705 2.783 2.11 2.783.913 0 1.552-.452 1.916-1.357l1.953 1.017c-.91 1.618-2.274 2.428-4.092 2.428-1.404 0-2.527-.43-3.372-1.292-.843-.862-1.266-2.05-1.266-3.563 0-1.488.429-2.67 1.286-3.544.857-.875 1.948-1.311 3.274-1.311 1.922 0 3.3.758 4.13 2.274l-2.109 1.059z"/><path d="M488.253 32.956c.318 0 .609.028.87.084.262.056.486.147.673.275.187.127.331.297.435.508.103.212.154.473.154.784 0 .336-.076.616-.23.84-.152.224-.377.407-.677.55.412.118.72.325.923.621.203.296.305.652.305 1.07 0 .335-.066.626-.197.873-.13.245-.307.446-.528.601a2.327 2.327 0 0 1-.758.346 3.402 3.402 0 0 1-.875.112h-3.236v-6.664h3.141zm-.186 2.695c.26 0 .476-.062.644-.186.168-.124.252-.325.252-.605a.773.773 0 0 0-.084-.381.63.63 0 0 0-.224-.234.951.951 0 0 0-.322-.116 2.172 2.172 0 0 0-.38-.032h-1.372v1.554h1.486zm.085 2.828c.143 0 .28-.013.411-.041.13-.029.246-.076.347-.14a.709.709 0 0 0 .238-.267.907.907 0 0 0 .089-.428c0-.342-.097-.586-.29-.733-.194-.145-.448-.219-.767-.219h-1.6v1.828h1.572zM490.964 32.956h1.644l1.56 2.632 1.551-2.632h1.634l-2.474 4.106v2.558h-1.468v-2.595l-2.447-4.069zM512.83 32.956l2.785 4.47h.015v-4.47h1.375v6.664h-1.465l-2.774-4.462h-.018v4.462h-1.375v-6.664h1.458zM522.569 34.731a1.502 1.502 0 0 0-.77-.616 1.514 1.514 0 0 0-.518-.089c-.33 0-.61.064-.841.192a1.57 1.57 0 0 0-.56.512 2.247 2.247 0 0 0-.313.733 3.636 3.636 0 0 0 0 1.665c.065.265.17.503.313.714.143.212.33.38.56.509.23.128.51.191.84.191.448 0 .799-.137 1.05-.411.253-.274.407-.635.462-1.083h1.42a3.391 3.391 0 0 1-.29 1.13 2.612 2.612 0 0 1-1.513 1.403 3.268 3.268 0 0 1-1.128.188c-.511 0-.97-.09-1.378-.267a2.958 2.958 0 0 1-1.032-.732 3.237 3.237 0 0 1-.646-1.098 4.03 4.03 0 0 1-.225-1.36c0-.498.076-.96.225-1.386.15-.427.364-.799.646-1.116.28-.318.625-.567 1.032-.747.408-.181.867-.271 1.378-.271.367 0 .714.053 1.04.16.327.105.62.259.878.462.259.202.471.453.64.752.167.299.273.642.317 1.027h-1.42a1.19 1.19 0 0 0-.167-.462zM538.83 32.956l2.785 4.47h.015v-4.47h1.375v6.664h-1.465l-2.774-4.462h-.018v4.462h-1.375v-6.664h1.458zM547.167 32.956c.431 0 .83.068 1.202.205.37.137.691.343.963.616.27.274.482.617.634 1.027.154.41.23.893.23 1.447 0 .485-.063.933-.187 1.344-.125.41-.313.765-.565 1.063a2.653 2.653 0 0 1-.944.705c-.377.171-.82.257-1.333.257h-2.877v-6.664h2.877zm-.102 5.43c.212 0 .417-.034.616-.103.2-.068.377-.181.532-.34.156-.159.28-.365.374-.62.093-.255.14-.566.14-.932 0-.336-.032-.639-.098-.91a1.81 1.81 0 0 0-.322-.694 1.43 1.43 0 0 0-.593-.443c-.246-.103-.55-.154-.91-.154h-1.046v4.196h1.307z" style="fill:#fff" transform="matrix(.99377 0 0 .99367 -437.12 0)"/><path d="M269.618-131.735a8.74 8.74 0 0 1-17.479.013v-.013a8.74 8.74 0 0 1 17.48-.013v.013z" style="fill:#fff" transform="matrix(1.13968 0 0 1.13956 -219.477 165.101)"/><path d="M77.826 3.386c3.252 0 6 1.12 8.244 3.362 2.245 2.242 3.368 4.987 3.368 8.233 0 3.246-1.104 5.962-3.31 8.146-2.342 2.3-5.11 3.449-8.302 3.449-3.153 0-5.873-1.14-8.156-3.42-2.284-2.28-3.425-5.006-3.425-8.175 0-3.17 1.141-5.914 3.425-8.233 2.225-2.241 4.944-3.362 8.156-3.362zm-8.972 8.48a9.289 9.289 0 0 0-.52 3.115c0 2.57.94 4.792 2.817 6.667 1.877 1.874 4.112 2.811 6.705 2.811 2.592 0 4.846-.946 6.762-2.84a8.928 8.928 0 0 0 1.585-2.028l-4.372-1.947c-.296 1.471-1.607 2.464-3.191 2.58v1.789h-1.331v-1.788c-1.302-.015-2.559-.547-3.52-1.388l1.597-1.61c.769.723 1.538 1.048 2.588 1.048.68 0 1.435-.266 1.435-1.153a.867.867 0 0 0-.313-.696l-1.106-.491-1.376-.614-1.837-.818-5.923-2.637zm9.002-6.393c-2.633 0-4.857.927-6.677 2.783-.495.5-.926 1.021-1.29 1.566l4.431 1.974c.401-1.23 1.57-1.976 2.989-2.059V7.95h1.331v1.788c.917.044 1.923.296 2.913 1.063l-1.523 1.567c-.562-.4-1.272-.68-1.982-.68-.576 0-1.39.177-1.39.901 0 .11.037.207.104.295l1.483.659 1.004.447c.641.287 1.254.558 1.86.829l5.943 2.645c.196-.778.295-1.606.295-2.482 0-2.647-.929-4.89-2.786-6.725-1.84-1.856-4.073-2.783-6.705-2.783z"/><path d="M387.834-482.974c.008 9.411-7.617 17.047-17.028 17.055-9.413.006-17.048-7.618-17.055-17.031v-.024c-.006-9.411 7.617-17.047 17.03-17.055 9.411-.007 17.047 7.618 17.053 17.03v.025z" style="fill:#fff" transform="matrix(.6211 0 0 .62104 -126.217 314.926)"/><path d="M103.918 3.386c-3.212 0-5.931 1.12-8.157 3.362-2.283 2.319-3.425 5.063-3.425 8.233 0 3.17 1.142 5.894 3.425 8.174 2.283 2.28 5.003 3.42 8.157 3.42 3.193 0 5.96-1.15 8.302-3.448 2.205-2.184 3.309-4.9 3.309-8.146 0-3.248-1.123-5.99-3.368-8.233-2.244-2.242-4.993-3.362-8.243-3.362zm.028 2.086c2.632 0 4.867.928 6.706 2.784 1.858 1.835 2.786 4.077 2.786 6.725 0 2.667-.909 4.88-2.727 6.638-1.917 1.894-4.172 2.84-6.765 2.84s-4.828-.937-6.705-2.812c-1.877-1.874-2.815-4.097-2.815-6.666 0-2.571.948-4.812 2.845-6.725 1.819-1.856 4.043-2.784 6.675-2.784z"/><path d="M108.313 12.233h-8.428v1.996h8.428v-1.996zm0 3.726h-8.428v1.996h8.428V15.96z"/><g transform="matrix(.99377 0 0 .99367 -437.12 0)"><circle cx="491.947" cy="15.314" r="10.806" style="fill:#fff"/><path d="M495.075 12.187a.754.754 0 0 0-.754-.753h-4.773a.754.754 0 0 0-.754.753v4.773h1.332v5.652h3.617V16.96h1.332v-4.773z"/><circle cx="491.935" cy="9.172" r="1.632"/><path d="M491.92 3.408c-3.232 0-5.968 1.127-8.208 3.384-2.297 2.333-3.446 5.095-3.446 8.284 0 3.189 1.149 5.932 3.446 8.227 2.298 2.294 5.035 3.442 8.207 3.442 3.213 0 5.999-1.157 8.355-3.472 2.22-2.197 3.329-4.93 3.329-8.197 0-3.268-1.129-6.029-3.388-8.285-2.258-2.256-5.023-3.383-8.296-3.383zm.03 2.1c2.648 0 4.896.933 6.746 2.8 1.87 1.847 2.805 4.104 2.805 6.768 0 2.683-.916 4.91-2.747 6.68-1.927 1.906-4.196 2.859-6.804 2.859-2.61 0-4.86-.943-6.748-2.83-1.889-1.886-2.833-4.122-2.833-6.71 0-2.586.954-4.842 2.862-6.767 1.831-1.867 4.07-2.8 6.719-2.8z" clip-rule="evenodd" style="fill-rule:evenodd"/></g></svg>