<svg xmlns="http://www.w3.org/2000/svg" width="120" height="42" version="1.0"><path d="m182.235 225.172 114.064.203c1.594 0 3.018-.236 3.018 3.18l-.14 37.567h-119.82v-37.706c0-1.685.163-3.244 2.878-3.244z" style="fill:#aab2ab" transform="matrix(.99378 0 0 .99367 -177.694 -223.31)"/><path d="M187.21 115.908c.005 8.68-7.028 15.721-15.709 15.727-8.68.005-15.722-7.028-15.727-15.708v-.02c-.005-8.68 7.028-15.72 15.708-15.726 8.682-.005 15.722 7.027 15.727 15.708v.019z" style="fill:#fff" transform="matrix(.8675 0 0 .8674 -127.88 -81.002)"/><path d="M31.971 8.432c3.024 3.022 4.536 6.724 4.536 11.104 0 4.38-1.486 8.042-4.458 10.988-3.153 3.102-6.88 4.652-11.181 4.652-4.249 0-7.912-1.537-10.987-4.614-3.076-3.075-4.614-6.75-4.614-11.026 0-4.275 1.538-7.977 4.614-11.104 2.997-3.025 6.66-4.537 10.987-4.537 4.38 0 8.08 1.512 11.103 4.537zm-20.054 2.033C9.36 13.047 8.083 16.07 8.083 19.54c0 3.468 1.265 6.466 3.794 8.996 2.53 2.529 5.542 3.794 9.037 3.794 3.495 0 6.532-1.277 9.114-3.833 2.452-2.373 3.678-5.358 3.678-8.957 0-3.572-1.246-6.604-3.737-9.095-2.49-2.489-5.508-3.735-9.055-3.735-3.547 0-6.546 1.252-8.997 3.755zm6.727 7.55c-.391-.853-.976-1.278-1.756-1.278-1.378 0-2.067.928-2.067 2.783 0 1.856.689 2.783 2.067 2.783.91 0 1.561-.452 1.951-1.356l1.911 1.017c-.91 1.617-2.277 2.427-4.1 2.427-1.405 0-2.53-.43-3.376-1.292-.846-.862-1.269-2.05-1.269-3.563 0-1.488.436-2.669 1.308-3.544.872-.874 1.958-1.311 3.26-1.311 1.926 0 3.305.758 4.139 2.274l-2.068 1.06zm8.99 0c-.391-.853-.965-1.278-1.72-1.278-1.406 0-2.11.928-2.11 2.783 0 1.856.704 2.783 2.11 2.783.912 0 1.55-.452 1.915-1.356l1.953 1.017c-.909 1.617-2.274 2.427-4.092 2.427-1.404 0-2.527-.43-3.372-1.292-.843-.862-1.266-2.05-1.266-3.563 0-1.488.43-2.669 1.287-3.544.857-.874 1.947-1.311 3.273-1.311 1.923 0 3.3.758 4.13 2.274l-2.108 1.06z"/><g transform="matrix(.99378 0 0 .99367 -177.694 -223.31)"><circle cx="242.562" cy="240.007" r="10.806" style="fill:#fff"/><path d="M245.69 236.88a.754.754 0 0 0-.754-.754h-4.772a.754.754 0 0 0-.754.754v4.772h1.33v5.653h3.618v-5.653h1.332v-4.772z"/><circle cx="242.55" cy="233.865" r="1.632"/><path d="M242.535 228.1c-3.232 0-5.969 1.128-8.208 3.384-2.298 2.333-3.446 5.096-3.446 8.285 0 3.188 1.148 5.931 3.446 8.226 2.298 2.295 5.034 3.442 8.208 3.442 3.213 0 5.998-1.157 8.353-3.471 2.22-2.197 3.33-4.93 3.33-8.197 0-3.268-1.129-6.029-3.387-8.285-2.26-2.256-5.025-3.383-8.296-3.383zm.029 2.1c2.648 0 4.897.934 6.747 2.801 1.87 1.847 2.805 4.103 2.805 6.768 0 2.683-.915 4.91-2.746 6.68-1.928 1.905-4.197 2.859-6.806 2.859-2.61 0-4.858-.944-6.747-2.83-1.89-1.886-2.833-4.123-2.833-6.71 0-2.586.954-4.842 2.862-6.767 1.83-1.867 4.07-2.8 6.718-2.8z" clip-rule="evenodd" style="fill-rule:evenodd"/></g><path d="M117.753 0H2.247A2.25 2.25 0 0 0 0 2.246v39.246c0 .28.228.508.508.508h118.984c.28 0 .508-.227.508-.508V2.246A2.25 2.25 0 0 0 117.753 0zM2.247 1.015h115.506c.68 0 1.232.552 1.232 1.231v27.206H36.428c-3.026 5.471-8.856 9.186-15.546 9.186-6.694 0-12.522-3.712-15.547-9.186h-4.32V2.246c0-.679.553-1.231 1.232-1.231z"/><path d="M239.178 257.688c.318 0 .608.029.87.084.261.056.486.148.673.276.187.127.332.297.435.508.102.212.154.472.154.784 0 .336-.076.615-.23.84-.152.223-.378.407-.677.55.412.118.72.325.923.62.203.296.304.653.304 1.07 0 .336-.065.627-.196.873a1.7 1.7 0 0 1-.528.602 2.327 2.327 0 0 1-.758.345 3.402 3.402 0 0 1-.875.113h-3.236v-6.665h3.141zm-.187 2.696c.261 0 .477-.062.645-.187.168-.124.252-.325.252-.604a.776.776 0 0 0-.084-.382.62.62 0 0 0-.224-.232.944.944 0 0 0-.323-.118 2.17 2.17 0 0 0-.378-.032h-1.374v1.555h1.486zm.086 2.828c.143 0 .28-.014.411-.042a1.02 1.02 0 0 0 .346-.14.713.713 0 0 0 .239-.265.911.911 0 0 0 .089-.43c0-.342-.097-.586-.29-.731-.194-.147-.45-.22-.767-.22h-1.6v1.828h1.572zM241.89 257.688h1.643l1.56 2.632 1.551-2.632h1.634l-2.474 4.107v2.558h-1.469v-2.595l-2.446-4.07zM265.277 257.688l2.784 4.471h.016v-4.47h1.375v6.664h-1.466l-2.774-4.462h-.018v4.462h-1.375v-6.665h1.458zM273.614 257.688c.43 0 .83.069 1.2.206.372.137.692.342.964.616.27.273.482.616.635 1.026.153.411.23.894.23 1.447 0 .486-.063.934-.187 1.344a2.968 2.968 0 0 1-.566 1.065 2.662 2.662 0 0 1-.944.704c-.377.172-.82.257-1.332.257h-2.878v-6.665h2.878zm-.103 5.43c.212 0 .417-.034.616-.102.2-.069.377-.182.533-.34.155-.16.28-.365.374-.62a2.74 2.74 0 0 0 .14-.933c0-.336-.033-.639-.098-.91a1.81 1.81 0 0 0-.323-.693 1.439 1.439 0 0 0-.592-.444c-.246-.101-.55-.153-.91-.153h-1.046v4.195h1.306z" style="fill:#fff" transform="matrix(.99378 0 0 .99367 -177.694 -223.31)"/><path d="M743.93-123.4c.006 9.411-7.619 17.047-17.031 17.055-9.411.005-17.047-7.617-17.055-17.031v-.024c-.006-9.412 7.619-17.047 17.031-17.055 9.413-.007 17.047 7.618 17.055 17.03v.025z" style="fill:#fff" transform="matrix(.6211 0 0 .62104 -359.567 91.617)"/><path d="M91.743 3.386c-3.213 0-5.931 1.12-8.157 3.361-2.283 2.32-3.425 5.063-3.425 8.234 0 3.169 1.142 5.893 3.425 8.174 2.284 2.28 5.002 3.42 8.157 3.42 3.192 0 5.96-1.15 8.302-3.449 2.206-2.184 3.31-4.9 3.31-8.145 0-3.248-1.124-5.991-3.368-8.234-2.245-2.242-4.994-3.361-8.244-3.361zm.03 2.085c2.63 0 4.865.929 6.704 2.785 1.858 1.835 2.787 4.076 2.787 6.725 0 2.666-.91 4.879-2.73 6.637-1.915 1.894-4.17 2.84-6.762 2.84-2.594 0-4.829-.936-6.706-2.812-1.877-1.874-2.815-4.096-2.815-6.665 0-2.572.948-4.812 2.844-6.725 1.82-1.856 4.045-2.785 6.677-2.785z"/><path d="M96.14 12.233h-8.431v1.996h8.43v-1.996zm0 3.726h-8.431v1.996h8.43v-1.996z"/></svg>