<svg xmlns="http://www.w3.org/2000/svg" width="120" height="42" version="1.0"><path d="m443.289 75.367 114.063.202c1.594 0 3.018-.236 3.018 3.181l-.14 37.567H440.41V78.61c0-1.685.163-3.243 2.879-3.243z" style="fill:#aab2ab" transform="matrix(.99378 0 0 .99367 -437.123 -74.437)"/><path d="M117.753 0H2.248A2.25 2.25 0 0 0 0 2.247v39.246c0 .28.227.507.508.507h118.984c.28 0 .508-.227.508-.507V2.247A2.25 2.25 0 0 0 117.753 0zM2.248 1.015h115.505c.68 0 1.232.553 1.232 1.232v27.22H36.428c-3.026 5.472-8.856 9.186-15.547 9.186-6.692 0-12.521-3.711-15.545-9.185h-4.32V2.247c0-.68.552-1.232 1.232-1.232z"/><path d="M486.266-55.707c.006 8.681-7.028 15.722-15.708 15.727-8.68.006-15.722-7.027-15.727-15.708v-.019c-.006-8.68 7.028-15.721 15.708-15.727 8.681-.005 15.722 7.028 15.727 15.708v.02z" style="fill:#fff" transform="matrix(.8675 0 0 .8674 -387.31 67.87)"/><path d="M31.972 8.447c3.023 3.023 4.535 6.725 4.535 11.104 0 4.38-1.486 8.043-4.458 10.988-3.154 3.102-6.88 4.653-11.182 4.653-4.248 0-7.911-1.538-10.985-4.614-3.077-3.075-4.614-6.75-4.614-11.027 0-4.275 1.537-7.976 4.614-11.104C12.878 5.423 16.54 3.91 20.867 3.91c4.38 0 8.08 1.512 11.105 4.536zM11.917 10.48c-2.557 2.581-3.835 5.605-3.835 9.074 0 3.469 1.266 6.467 3.795 8.996 2.53 2.53 5.542 3.795 9.037 3.795 3.495 0 6.532-1.278 9.115-3.833 2.451-2.374 3.677-5.359 3.677-8.958 0-3.571-1.246-6.603-3.737-9.094-2.49-2.49-5.509-3.735-9.055-3.735-3.546 0-6.547 1.252-8.997 3.755zm6.726 7.549c-.39-.852-.974-1.278-1.755-1.278-1.378 0-2.067.928-2.067 2.784 0 1.856.69 2.783 2.067 2.783.91 0 1.56-.452 1.951-1.357l1.91 1.017c-.91 1.618-2.277 2.428-4.098 2.428-1.406 0-2.531-.43-3.377-1.292-.846-.862-1.27-2.05-1.27-3.564 0-1.487.438-2.668 1.31-3.543.87-.875 1.958-1.312 3.259-1.312 1.926 0 3.304.759 4.14 2.275l-2.07 1.059zm8.99 0c-.39-.852-.964-1.278-1.72-1.278-1.405 0-2.109.928-2.109 2.784 0 1.856.704 2.783 2.11 2.783.912 0 1.55-.452 1.915-1.357l1.953 1.017c-.91 1.618-2.274 2.428-4.092 2.428-1.404 0-2.526-.43-3.372-1.292-.843-.862-1.266-2.05-1.266-3.564 0-1.487.429-2.668 1.287-3.543.857-.875 1.947-1.312 3.273-1.312 1.923 0 3.3.759 4.13 2.275l-2.108 1.059z"/><g transform="matrix(.99378 0 0 .99367 -437.123 -74.437)"><circle cx="491.946" cy="90.232" r="10.806" style="fill:#fff"/><path d="M495.074 87.105a.754.754 0 0 0-.754-.754h-4.773a.754.754 0 0 0-.754.754v4.773h1.332v5.652h3.617v-5.652h1.332v-4.773z"/><circle cx="491.934" cy="84.09" r="1.632"/><path d="M491.918 78.325c-3.231 0-5.967 1.128-8.207 3.384-2.297 2.333-3.446 5.096-3.446 8.285s1.149 5.931 3.446 8.227c2.298 2.294 5.035 3.442 8.207 3.442 3.213 0 5.999-1.157 8.355-3.472 2.22-2.197 3.329-4.93 3.329-8.197 0-3.268-1.129-6.03-3.388-8.285-2.258-2.256-5.023-3.384-8.296-3.384zm.03 2.1c2.65 0 4.897.934 6.747 2.801 1.87 1.847 2.805 4.104 2.805 6.768 0 2.683-.916 4.91-2.747 6.68-1.927 1.906-4.196 2.859-6.804 2.859-2.61 0-4.86-.943-6.748-2.83-1.889-1.886-2.833-4.122-2.833-6.71 0-2.586.954-4.842 2.862-6.767 1.831-1.867 4.07-2.801 6.719-2.801z" clip-rule="evenodd" style="fill-rule:evenodd"/></g><path d="M488.563 107.867c.317 0 .607.029.87.084.26.056.485.148.673.276.186.127.331.296.435.507.102.212.154.473.154.785 0 .335-.076.615-.23.838-.152.225-.379.408-.677.551.412.118.72.325.922.621.204.296.305.653.305 1.07 0 .336-.065.627-.196.873-.131.245-.308.446-.53.601-.22.156-.473.272-.756.346a3.402 3.402 0 0 1-.875.112h-3.237v-6.664h3.142zm-.188 2.695c.262 0 .477-.062.645-.186.169-.124.253-.325.253-.605a.773.773 0 0 0-.084-.381.63.63 0 0 0-.225-.234.951.951 0 0 0-.322-.116 2.18 2.18 0 0 0-.379-.032h-1.373v1.555h1.485zm.086 2.829c.144 0 .28-.014.412-.042.13-.029.246-.076.346-.14a.709.709 0 0 0 .239-.267.919.919 0 0 0 .088-.428c0-.342-.096-.586-.29-.733-.193-.145-.449-.219-.766-.219h-1.6v1.829h1.571zM491.274 107.867h1.643l1.56 2.632 1.552-2.632h1.634l-2.475 4.107v2.557h-1.469v-2.594l-2.445-4.07zM538.916 112.884c.08.155.187.281.32.378.135.096.29.168.472.215.18.046.365.07.558.07.13 0 .27-.01.42-.033.147-.022.287-.064.418-.126a.916.916 0 0 0 .326-.257.649.649 0 0 0 .13-.415.584.584 0 0 0-.173-.439 1.369 1.369 0 0 0-.451-.28 4.693 4.693 0 0 0-.634-.196 16.943 16.943 0 0 1-.718-.187 6.49 6.49 0 0 1-.727-.228 2.488 2.488 0 0 1-.634-.35 1.638 1.638 0 0 1-.451-.537 1.629 1.629 0 0 1-.173-.78c0-.342.073-.639.219-.89.146-.253.338-.463.573-.632.236-.168.504-.292.803-.373.298-.08.597-.12.894-.12.349 0 .683.038 1.003.116.32.077.605.204.853.378.249.175.446.398.593.668.145.272.218.6.218.986h-1.422a1.18 1.18 0 0 0-.125-.495.826.826 0 0 0-.284-.308 1.18 1.18 0 0 0-.403-.158 2.463 2.463 0 0 0-.497-.047 1.73 1.73 0 0 0-.353.037.94.94 0 0 0-.32.13.807.807 0 0 0-.237.234.634.634 0 0 0-.093.355c0 .13.024.237.074.317.05.081.148.156.294.225.147.068.348.136.606.205.257.068.595.156 1.011.261.124.025.297.07.517.136.22.066.44.17.657.313.218.143.405.335.565.574.158.24.237.546.237.92 0 .304-.06.588-.178.85a1.838 1.838 0 0 1-.527.676c-.234.19-.523.338-.868.444-.345.106-.744.159-1.2.159-.367 0-.722-.046-1.068-.136a2.679 2.679 0 0 1-.914-.426 2.114 2.114 0 0 1-.63-.74c-.156-.298-.231-.652-.224-1.064h1.421c0 .224.04.415.122.57zM547.172 107.867l2.493 6.664h-1.522l-.504-1.484h-2.492l-.523 1.484h-1.475l2.52-6.664h1.503zm.084 4.086-.84-2.443h-.019l-.867 2.443h1.726zM512.83 107.867l2.785 4.47h.015v-4.47h1.375v6.664h-1.465l-2.774-4.462h-.018v4.462h-1.375v-6.664h1.458zM522.569 109.643a1.502 1.502 0 0 0-.77-.616 1.514 1.514 0 0 0-.518-.09c-.33 0-.61.064-.841.192a1.57 1.57 0 0 0-.56.513 2.247 2.247 0 0 0-.313.732 3.636 3.636 0 0 0 0 1.665c.065.265.17.503.313.714.143.212.33.38.56.509.23.128.51.191.84.191.448 0 .799-.137 1.05-.411.253-.273.407-.635.462-1.083h1.42a3.391 3.391 0 0 1-.29 1.13 2.612 2.612 0 0 1-1.513 1.403 3.268 3.268 0 0 1-1.128.188c-.511 0-.97-.09-1.378-.267a2.958 2.958 0 0 1-1.032-.732 3.253 3.253 0 0 1-.646-1.098 4.03 4.03 0 0 1-.225-1.36c0-.497.076-.96.225-1.386.15-.427.365-.799.646-1.116.28-.318.625-.567 1.032-.747.408-.181.867-.27 1.378-.27.367 0 .714.052 1.04.158.327.106.62.26.878.463.259.202.471.453.64.752.167.299.273.642.317 1.027h-1.42a1.205 1.205 0 0 0-.167-.461z" style="fill:#fff" transform="matrix(.99378 0 0 .99367 -437.123 -74.437)"/><path d="M644.576-363.116c.008 9.412-7.617 17.048-17.03 17.055-9.412.006-17.046-7.617-17.054-17.031v-.024c-.007-9.411 7.619-17.047 17.03-17.055 9.412-.007 17.047 7.619 17.054 17.03v.025z" style="fill:#fff" transform="matrix(.6211 0 0 .62104 -285.772 240.49)"/><path d="M103.919 3.386c-3.212 0-5.932 1.12-8.156 3.362-2.284 2.319-3.426 5.063-3.426 8.233 0 3.169 1.142 5.893 3.426 8.174 2.283 2.28 5.002 3.42 8.156 3.42 3.193 0 5.96-1.15 8.301-3.448 2.206-2.185 3.31-4.9 3.31-8.146 0-3.247-1.122-5.991-3.368-8.233-2.244-2.241-4.992-3.362-8.243-3.362zm.029 2.087c2.632 0 4.866.927 6.705 2.783 1.858 1.835 2.786 4.076 2.786 6.725 0 2.666-.909 4.879-2.729 6.639-1.914 1.893-4.17 2.84-6.762 2.84-2.593 0-4.828-.938-6.705-2.812-1.877-1.875-2.815-4.097-2.815-6.667 0-2.57.947-4.812 2.844-6.725 1.819-1.856 4.044-2.783 6.676-2.783z"/><path d="M98.78 13.345c.461-2.918 2.515-4.478 5.09-4.478 3.7 0 5.957 2.686 5.957 6.268 0 3.495-2.4 6.21-6.016 6.21-2.487 0-4.714-1.53-5.12-4.535h2.922c.087 1.56 1.1 2.109 2.546 2.109 1.648 0 2.718-1.53 2.718-3.87 0-2.456-.925-3.755-2.661-3.755-1.272 0-2.371.462-2.603 2.05l.85-.005-2.3 2.3-2.299-2.3.915.006z"/><path d="M536.237-66.415c.004 5.229-4.232 9.468-9.458 9.473-5.228.003-9.47-4.231-9.473-9.459v-.014c-.004-5.227 4.231-9.467 9.458-9.472 5.228-.004 9.47 4.232 9.473 9.459v.013z" style="fill:#fff" transform="matrix(1.13969 0 0 1.13956 -522.514 90.664)"/><path d="M77.827 3.386c3.251 0 5.999 1.12 8.244 3.362s3.367 4.986 3.367 8.233c0 3.246-1.103 5.961-3.308 8.146-2.343 2.3-5.11 3.449-8.303 3.449-3.154 0-5.873-1.14-8.156-3.42-2.283-2.28-3.425-5.006-3.425-8.175 0-3.17 1.142-5.914 3.425-8.233 2.226-2.241 4.944-3.362 8.156-3.362zm-8.972 8.48a9.26 9.26 0 0 0-.519 3.115c0 2.57.938 4.792 2.815 6.667 1.877 1.874 4.112 2.811 6.705 2.811 2.594 0 4.848-.946 6.764-2.84a8.951 8.951 0 0 0 1.584-2.028l-4.371-1.947c-.296 1.471-1.608 2.464-3.192 2.58v1.789h-1.332v-1.788c-1.3-.015-2.558-.548-3.52-1.389l1.598-1.61c.77.724 1.538 1.049 2.588 1.049.681 0 1.435-.266 1.435-1.153a.867.867 0 0 0-.313-.696l-1.106-.493-1.377-.613-1.836-.817-5.923-2.637zm9.001-6.393c-2.632 0-4.856.927-6.676 2.783a10.7 10.7 0 0 0-1.291 1.566l4.433 1.973c.4-1.229 1.57-1.975 2.987-2.058V7.949h1.332v1.788c.917.044 1.922.296 2.914 1.063l-1.524 1.566c-.563-.398-1.272-.68-1.982-.68-.577 0-1.39.177-1.39.9 0 .112.037.21.104.295l1.483.66 1.003.448 1.862.829 5.943 2.645c.196-.778.294-1.606.294-2.482 0-2.649-.929-4.89-2.785-6.725-1.84-1.856-4.075-2.783-6.707-2.783z"/></svg>