<svg xmlns="http://www.w3.org/2000/svg" width="120" height="42" version="1.0"><path d="m182.235 75.39 114.064.203c1.594 0 3.018-.237 3.018 3.18l-.14 37.567h-119.82V78.634c0-1.685.163-3.244 2.878-3.244z" style="fill:#aab2ab" transform="matrix(.99378 0 0 .99367 -177.694 -74.436)"/><path d="M187.21-55.68c.005 8.681-7.028 15.722-15.709 15.728-8.68.005-15.722-7.028-15.727-15.708v-.02c-.005-8.68 7.028-15.721 15.708-15.726 8.682-.006 15.722 7.028 15.727 15.708v.019z" style="fill:#fff" transform="matrix(.8675 0 0 .8674 -127.88 67.871)"/><path d="M31.971 8.47c3.024 3.024 4.536 6.726 4.536 11.105 0 4.38-1.486 8.043-4.458 10.988-3.153 3.102-6.88 4.653-11.181 4.653-4.249 0-7.912-1.537-10.987-4.614-3.076-3.076-4.614-6.751-4.614-11.027 0-4.275 1.538-7.976 4.614-11.105 2.997-3.024 6.66-4.535 10.987-4.535 4.38 0 8.08 1.511 11.103 4.535zm-20.054 2.034C9.36 13.086 8.083 16.11 8.083 19.58c0 3.469 1.265 6.467 3.794 8.996 2.53 2.53 5.542 3.794 9.037 3.794 3.495 0 6.532-1.277 9.114-3.833 2.452-2.373 3.678-5.358 3.678-8.957 0-3.572-1.246-6.603-3.737-9.094-2.49-2.49-5.508-3.735-9.055-3.735-3.547 0-6.546 1.251-8.997 3.754zm6.727 7.55c-.391-.852-.976-1.278-1.756-1.278-1.378 0-2.067.928-2.067 2.783 0 1.856.689 2.784 2.067 2.784.91 0 1.561-.452 1.951-1.358l1.911 1.018c-.91 1.618-2.277 2.428-4.1 2.428-1.405 0-2.53-.431-3.376-1.292-.846-.862-1.269-2.05-1.269-3.563 0-1.489.436-2.67 1.308-3.544.872-.875 1.958-1.312 3.26-1.312 1.926 0 3.305.759 4.139 2.275l-2.068 1.058zm8.99 0c-.391-.852-.965-1.278-1.72-1.278-1.406 0-2.11.928-2.11 2.783 0 1.856.704 2.784 2.11 2.784.912 0 1.55-.452 1.915-1.358l1.953 1.018c-.909 1.618-2.274 2.428-4.092 2.428-1.404 0-2.527-.431-3.372-1.292-.843-.862-1.266-2.05-1.266-3.563 0-1.489.43-2.67 1.287-3.544.857-.875 1.947-1.312 3.273-1.312 1.923 0 3.3.759 4.13 2.275l-2.108 1.058z"/><path d="M117.753 0H2.247A2.25 2.25 0 0 0 0 2.247v39.245c0 .28.227.508.507.508h118.985c.28 0 .508-.228.508-.508V2.247A2.25 2.25 0 0 0 117.753 0zM2.247 1.015h115.506c.68 0 1.232.553 1.232 1.232v27.245H36.428c-3.026 5.47-8.856 9.185-15.546 9.185-6.694 0-12.522-3.711-15.547-9.185h-4.32V2.247c0-.68.552-1.232 1.232-1.232z"/><path d="M265.61 112.883c.08.156.187.282.321.379.134.096.29.168.47.214.18.047.367.07.56.07.13 0 .269-.01.418-.032.149-.022.288-.064.42-.126a.906.906 0 0 0 .325-.257.64.64 0 0 0 .13-.416.585.585 0 0 0-.172-.438 1.363 1.363 0 0 0-.453-.28 4.569 4.569 0 0 0-.632-.196 16.958 16.958 0 0 1-.718-.187 6.293 6.293 0 0 1-.728-.229 2.502 2.502 0 0 1-.633-.35 1.648 1.648 0 0 1-.453-.536 1.64 1.64 0 0 1-.172-.78c0-.343.074-.64.22-.891a2 2 0 0 1 .573-.63c.236-.169.503-.293.802-.374.298-.08.597-.121.895-.121.348 0 .682.039 1.003.117.319.077.604.204.852.378.25.175.446.397.593.668.145.271.219.6.219.986h-1.422a1.2 1.2 0 0 0-.125-.495.832.832 0 0 0-.283-.309 1.204 1.204 0 0 0-.405-.158 2.47 2.47 0 0 0-.497-.047 1.73 1.73 0 0 0-.352.037.95.95 0 0 0-.32.131.801.801 0 0 0-.238.234.634.634 0 0 0-.093.355c0 .13.025.236.075.317.05.081.148.156.294.224.145.068.347.137.605.206.258.068.595.155 1.012.26.124.026.296.071.516.137.221.065.44.17.658.312.217.144.405.335.564.574.158.24.237.547.237.92 0 .305-.06.589-.177.85a1.838 1.838 0 0 1-.528.677 2.53 2.53 0 0 1-.867.444 4.103 4.103 0 0 1-1.2.158c-.366 0-.723-.045-1.069-.136a2.692 2.692 0 0 1-.915-.425 2.12 2.12 0 0 1-.63-.74c-.155-.298-.229-.653-.223-1.064h1.422c0 .224.04.414.12.57zM273.867 107.867l2.493 6.664h-1.523l-.504-1.485h-2.493l-.522 1.485h-1.475l2.52-6.664h1.504zm.084 4.086-.84-2.444h-.019l-.869 2.444h1.728zM239.178 107.867c.318 0 .608.028.87.084.261.056.486.148.673.275.187.128.332.297.435.508.102.212.154.473.154.784 0 .336-.076.615-.23.84-.152.224-.378.407-.677.55.412.118.72.325.923.62.203.297.304.653.304 1.07 0 .336-.065.627-.196.873a1.71 1.71 0 0 1-.528.602 2.336 2.336 0 0 1-.758.345 3.402 3.402 0 0 1-.875.113h-3.236v-6.664h3.141zm-.187 2.695c.261 0 .476-.062.645-.186.168-.125.252-.326.252-.605a.775.775 0 0 0-.084-.382.624.624 0 0 0-.224-.233.951.951 0 0 0-.323-.116 2.133 2.133 0 0 0-.379-.033h-1.373v1.555h1.486zm.086 2.828c.143 0 .28-.014.41-.042.132-.028.248-.075.347-.14a.711.711 0 0 0 .239-.266.909.909 0 0 0 .089-.429c0-.342-.097-.586-.29-.732-.194-.146-.45-.219-.767-.219h-1.6v1.828h1.572zM241.89 107.867h1.643l1.56 2.632 1.551-2.632h1.634l-2.474 4.106v2.558h-1.469v-2.595l-2.446-4.07z" style="fill:#fff" transform="matrix(.99378 0 0 .99367 -177.694 -74.436)"/><path d="M-175.008-139.115c.006 9.412-7.618 17.047-17.03 17.055-9.411.007-17.047-7.618-17.055-17.03v-.025c-.006-9.413 7.619-17.047 17.03-17.055 9.412-.007 17.048 7.618 17.055 17.03v.025z" style="fill:#fff" transform="matrix(.6211 0 0 .62104 211.102 101.377)"/><path d="M91.742 3.386c-3.212 0-5.93 1.12-8.156 3.362-2.283 2.32-3.425 5.064-3.425 8.233 0 3.169 1.142 5.894 3.425 8.174 2.283 2.28 5.002 3.42 8.156 3.42 3.193 0 5.96-1.15 8.303-3.449 2.205-2.183 3.308-4.899 3.308-8.145 0-3.246-1.123-5.991-3.367-8.233-2.245-2.241-4.993-3.362-8.244-3.362zm.03 2.087c2.631 0 4.866.927 6.705 2.783 1.857 1.836 2.786 4.077 2.786 6.725 0 2.666-.909 4.88-2.728 6.638-1.916 1.894-4.17 2.84-6.764 2.84-2.593 0-4.828-.937-6.705-2.81-1.877-1.876-2.815-4.098-2.815-6.668 0-2.57.948-4.812 2.844-6.725 1.82-1.856 4.044-2.783 6.676-2.783z"/><path d="M86.603 13.344c.462-2.917 2.516-4.477 5.09-4.477 3.702 0 5.958 2.686 5.958 6.268 0 3.495-2.4 6.21-6.016 6.21-2.488 0-4.714-1.53-5.12-4.534h2.921c.088 1.56 1.1 2.108 2.546 2.108 1.648 0 2.72-1.53 2.72-3.87 0-2.455-.927-3.755-2.663-3.755-1.272 0-2.37.462-2.603 2.05l.85-.004-2.3 2.299-2.299-2.3.916.005z"/><g transform="matrix(.99378 0 0 .99367 -177.694 -74.436)"><circle cx="242.562" cy="90.225" r="10.806" style="fill:#fff"/><path d="M245.69 87.098a.754.754 0 0 0-.754-.754h-4.772a.754.754 0 0 0-.754.754v4.773h1.33v5.652h3.618V91.87h1.332v-4.773z"/><circle cx="242.55" cy="84.083" r="1.632"/><path d="M242.535 78.318c-3.232 0-5.969 1.128-8.208 3.384-2.298 2.333-3.446 5.095-3.446 8.284 0 3.19 1.148 5.932 3.446 8.227s5.034 3.442 8.208 3.442c3.213 0 5.998-1.156 8.353-3.471 2.22-2.197 3.33-4.93 3.33-8.198 0-3.267-1.129-6.028-3.387-8.284-2.26-2.256-5.025-3.384-8.296-3.384zm.029 2.1c2.648 0 4.897.934 6.747 2.8 1.87 1.848 2.805 4.104 2.805 6.768 0 2.684-.915 4.911-2.746 6.681-1.928 1.906-4.197 2.858-6.806 2.858-2.61 0-4.858-.942-6.747-2.83-1.89-1.885-2.833-4.122-2.833-6.709 0-2.586.954-4.842 2.862-6.767 1.83-1.867 4.07-2.801 6.718-2.801z" clip-rule="evenodd" style="fill-rule:evenodd"/></g></svg>