<svg xmlns="http://www.w3.org/2000/svg" width="120" height="42" version="1.0"><path d="M181.966.51 296.03.714c1.594 0 3.017-.236 3.017 3.181l-.14 37.567h-119.82V3.754c0-1.685.163-3.243 2.879-3.243z" style="fill:#aab2ab" transform="matrix(.99377 0 0 .99367 -177.693 0)"/><path d="M117.752 0H2.247A2.25 2.25 0 0 0 0 2.246v39.247c0 .28.228.507.508.507h118.984c.28 0 .508-.227.508-.507V2.246A2.25 2.25 0 0 0 117.752 0zM2.247 1.015h115.505c.68 0 1.233.552 1.233 1.231v27.276H36.16c-3.026 5.471-8.856 9.186-15.547 9.186-6.693 0-12.521-3.711-15.546-9.186H1.015V2.246c0-.679.553-1.231 1.232-1.231z"/><path d="M253.078 32.956c.317 0 .607.028.87.084.261.056.485.147.673.275.186.127.332.297.434.508.103.212.154.473.154.784 0 .336-.076.616-.229.84-.152.224-.379.407-.678.55.412.118.72.325.923.621.203.296.305.652.305 1.07 0 .335-.066.626-.197.873-.13.245-.307.446-.528.601a2.327 2.327 0 0 1-.758.346 3.402 3.402 0 0 1-.875.112h-3.236v-6.664h3.142zm-.188 2.695c.262 0 .477-.062.646-.186.168-.124.252-.325.252-.605a.773.773 0 0 0-.084-.381.63.63 0 0 0-.225-.234.951.951 0 0 0-.322-.116 2.169 2.169 0 0 0-.378-.032h-1.374v1.554h1.485zm.086 2.828c.144 0 .28-.013.411-.041.131-.029.246-.076.347-.14a.709.709 0 0 0 .238-.267.907.907 0 0 0 .089-.428c0-.342-.097-.586-.29-.733-.193-.145-.45-.219-.767-.219h-1.6v1.828h1.572zM255.789 32.956h1.643l1.56 2.632 1.551-2.632h1.634l-2.473 4.106v2.558h-1.47v-2.595l-2.445-4.069z" style="fill:#fff" transform="matrix(.99377 0 0 .99367 -177.693 0)"/><path d="M186.9-141.46c.006 8.68-7.027 15.721-15.707 15.727-8.68.006-15.722-7.027-15.728-15.708v-.019c-.005-8.68 7.028-15.722 15.709-15.727 8.68-.005 15.722 7.028 15.727 15.709v.018z" style="fill:#fff" transform="matrix(.86749 0 0 .8674 -127.88 142.308)"/><path d="M31.703 8.502c3.024 3.023 4.536 6.725 4.536 11.104 0 4.38-1.486 8.043-4.458 10.988-3.153 3.102-6.88 4.653-11.181 4.653-4.249 0-7.911-1.538-10.987-4.614C6.537 27.557 5 23.883 5 19.606c0-4.275 1.538-7.976 4.614-11.104 2.997-3.025 6.66-4.537 10.987-4.537 4.38 0 8.08 1.512 11.103 4.537zM11.65 10.535c-2.557 2.582-3.834 5.606-3.834 9.075 0 3.469 1.265 6.467 3.794 8.996 2.53 2.53 5.542 3.794 9.037 3.794 3.495 0 6.532-1.277 9.114-3.832 2.452-2.374 3.678-5.358 3.678-8.958 0-3.572-1.246-6.603-3.737-9.094-2.49-2.49-5.508-3.735-9.055-3.735-3.547 0-6.546 1.251-8.997 3.754zm6.727 7.55c-.391-.852-.976-1.278-1.756-1.278-1.378 0-2.067.928-2.067 2.784 0 1.855.689 2.783 2.067 2.783.91 0 1.561-.452 1.951-1.357l1.911 1.017c-.91 1.618-2.277 2.427-4.1 2.427-1.405 0-2.53-.43-3.376-1.291-.846-.862-1.269-2.05-1.269-3.564 0-1.488.436-2.669 1.308-3.543.872-.875 1.958-1.312 3.26-1.312 1.926 0 3.305.759 4.139 2.275l-2.068 1.059zm8.99 0c-.392-.852-.965-1.278-1.72-1.278-1.406 0-2.11.928-2.11 2.784 0 1.855.704 2.783 2.11 2.783.912 0 1.55-.452 1.915-1.357l1.953 1.017c-.91 1.618-2.274 2.427-4.092 2.427-1.404 0-2.527-.43-3.372-1.291-.843-.862-1.266-2.05-1.266-3.564 0-1.488.43-2.669 1.287-3.543.857-.875 1.947-1.312 3.273-1.312 1.923 0 3.3.759 4.13 2.275l-2.108 1.059z"/><g transform="matrix(.99377 0 0 .99367 -177.693 0)"><circle cx="255.551" cy="15.313" r="10.807" style="fill:#fff"/><path d="M258.678 12.187a.754.754 0 0 0-.753-.754h-4.773a.754.754 0 0 0-.753.754v4.773h1.33v5.652h3.618V16.96h1.331v-4.773z"/><circle cx="255.539" cy="9.172" r="1.633"/><path d="M255.524 3.407c-3.233 0-5.969 1.128-8.208 3.384-2.298 2.334-3.446 5.096-3.446 8.285s1.148 5.931 3.446 8.226c2.298 2.295 5.034 3.442 8.208 3.442 3.213 0 5.998-1.156 8.353-3.471 2.22-2.197 3.33-4.93 3.33-8.197 0-3.268-1.13-6.03-3.387-8.285-2.26-2.256-5.025-3.384-8.296-3.384zm.03 2.1c2.648 0 4.897.934 6.746 2.801 1.87 1.847 2.804 4.103 2.804 6.768 0 2.683-.915 4.91-2.745 6.68-1.929 1.906-4.196 2.859-6.806 2.859-2.61 0-4.86-.943-6.747-2.83-1.89-1.887-2.833-4.123-2.833-6.71 0-2.586.954-4.842 2.862-6.767 1.83-1.867 4.07-2.801 6.718-2.801z" clip-rule="evenodd" style="fill-rule:evenodd"/></g></svg>